<svg width="400" height="111" viewBox="0 0 400 111" fill="none" xmlns="http://www.w3.org/2000/svg">
<path d="M130.635 15.4694L118.075 57.7094H106.795L116.795 23.9493C115.408 24.4827 113.888 25.016 112.235 25.5493C110.635 26.0827 108.608 26.6693 106.155 27.3093L106.395 25.6293C110.288 24.616 113.621 23.5493 116.395 22.4293C119.168 21.3093 121.541 20.136 123.515 18.9093C125.541 17.6827 127.381 16.536 129.035 15.4694H130.635ZM162.722 15.2293C167.682 15.2293 171.549 16.536 174.322 19.1493C177.095 21.7093 178.482 25.256 178.482 29.7894C178.482 33.3627 177.735 36.8827 176.242 40.3493C174.749 43.816 172.695 46.936 170.082 49.7094C167.469 52.4827 164.429 54.696 160.962 56.3494C157.549 58.0027 153.922 58.8294 150.082 58.8294C145.229 58.8294 141.362 57.5494 138.482 54.9894C135.602 52.4294 134.162 48.8294 134.162 44.1893C134.162 40.5627 134.909 37.0427 136.402 33.6293C137.949 30.216 140.029 27.1227 142.642 24.3493C145.309 21.5227 148.349 19.3093 151.762 17.7094C155.229 16.056 158.882 15.2293 162.722 15.2293ZM161.442 16.6693C159.202 16.6693 157.122 17.5227 155.202 19.2293C153.282 20.8827 151.602 23.1227 150.162 25.9493C148.775 28.776 147.709 31.9227 146.962 35.3893C146.215 38.856 145.842 42.3227 145.842 45.7894C145.842 49.9494 146.375 52.936 147.442 54.7494C148.509 56.5094 149.815 57.3894 151.362 57.3894C153.709 57.3894 155.815 56.5094 157.682 54.7494C159.549 52.9894 161.149 50.6694 162.482 47.7894C163.869 44.9094 164.935 41.736 165.682 38.2693C166.429 34.8027 166.802 31.3893 166.802 28.0293C166.802 23.9227 166.295 21.016 165.282 19.3093C164.269 17.5493 162.989 16.6693 161.442 16.6693ZM217.474 51.9854C217.15 53.2814 217.042 54.2534 217.15 54.9014C217.294 55.5494 217.672 55.9814 218.284 56.1974C218.932 56.4134 219.868 56.5574 221.092 56.6294L220.822 57.7094C220.21 57.6734 219.436 57.6554 218.5 57.6554C217.564 57.6194 216.556 57.6014 215.476 57.6014C214.432 57.5654 213.406 57.5474 212.398 57.5474C210.778 57.5474 209.23 57.5654 207.754 57.6014C206.314 57.6014 205.144 57.6374 204.244 57.7094L204.514 56.6294C205.738 56.5574 206.692 56.4134 207.376 56.1974C208.06 55.9814 208.6 55.5494 208.996 54.9014C209.392 54.2534 209.752 53.2814 210.076 51.9854L213.802 37.1893L216.772 40.5914L219.85 39.5653L221.686 35.2454L217.474 51.9854ZM235.294 19.7474C234.718 19.7833 234.178 19.9093 233.674 20.1253C233.17 20.3053 232.648 20.5933 232.108 20.9894C231.028 21.7813 229.75 23.1133 228.274 24.9854C226.834 26.8573 225.34 29.3053 223.792 32.3293C222.244 35.3173 220.786 38.9173 219.418 43.1294L213.424 43.3993C213.28 41.7433 213.082 39.9613 212.83 38.0533C212.614 36.1453 212.326 34.2733 211.966 32.4373C211.642 30.6013 211.228 28.9273 210.724 27.4153C210.256 25.8673 209.698 24.6433 209.05 23.7434C208.438 22.8073 207.718 22.3393 206.89 22.3393C206.242 22.3393 205.72 22.5733 205.324 23.0413C204.928 23.4733 204.604 24.0853 204.352 24.8773L203.056 28.6573C203.056 28.6573 202.858 28.6573 202.462 28.6573C202.066 28.6573 201.868 28.6573 201.868 28.6573L203.434 24.1213C204.082 22.1773 204.946 20.7913 206.026 19.9633C207.142 19.1353 208.546 18.7213 210.238 18.7213C212.542 18.7213 214.324 19.4953 215.584 21.0433C216.844 22.5913 217.798 24.8233 218.446 27.7394C219.13 30.6193 219.688 34.0573 220.12 38.0533C221.38 34.6333 222.802 31.5913 224.386 28.9273C226.006 26.2273 227.662 23.9593 229.354 22.1233C230.182 21.2233 231.154 20.4313 232.27 19.7474C233.386 19.0633 234.556 18.7213 235.78 18.7213C237.256 18.7213 238.354 19.1533 239.074 20.0173C239.794 20.8453 240.136 21.8173 240.1 22.9333C240.1 24.0493 239.704 25.0573 238.912 25.9574C238.12 26.8573 237.076 27.3073 235.78 27.3073C234.7 27.3073 233.89 27.0193 233.35 26.4433C232.846 25.8673 232.612 25.1473 232.648 24.2833C232.648 23.3113 232.954 22.4473 233.566 21.6913C234.214 20.8993 234.988 20.3233 235.888 19.9633C235.816 19.8913 235.726 19.8373 235.618 19.8013C235.51 19.7653 235.402 19.7474 235.294 19.7474ZM235.02 45.8293C236.712 45.1814 238.26 44.5154 239.664 43.8314C241.104 43.1114 242.31 42.3553 243.282 41.5633C244.614 40.3753 245.694 38.9893 246.522 37.4053C247.35 35.7853 247.764 34.0213 247.764 32.1133C247.764 31.2853 247.692 30.7454 247.548 30.4934C247.404 30.2413 247.188 30.1153 246.9 30.1153C246.072 30.1153 245.172 30.5113 244.2 31.3033C243.228 32.0953 242.274 33.1933 241.338 34.5973C240.402 35.9653 239.538 37.5133 238.746 39.2414C237.99 40.9694 237.378 42.7874 236.91 44.6953C236.442 46.6034 236.208 48.4934 236.208 50.3654C236.208 52.2734 236.568 53.6234 237.288 54.4154C238.044 55.1714 239.034 55.5494 240.258 55.5494C241.302 55.5494 242.544 55.2074 243.984 54.5234C245.424 53.8394 246.846 52.5974 248.25 50.7974L249.114 51.2294C248.394 52.4174 247.44 53.5694 246.252 54.6854C245.064 55.8014 243.696 56.7194 242.148 57.4394C240.636 58.1234 238.962 58.4654 237.126 58.4654C235.614 58.4654 234.246 58.1774 233.022 57.6014C231.798 57.0254 230.844 56.1794 230.16 55.0634C229.476 53.9114 229.134 52.5074 229.134 50.8514C229.134 49.0874 229.44 47.2153 230.052 45.2354C230.664 43.2194 231.528 41.2574 232.644 39.3494C233.796 37.4414 235.146 35.7133 236.694 34.1653C238.278 32.6173 240.024 31.3933 241.932 30.4934C243.84 29.5573 245.892 29.0893 248.088 29.0893C249.528 29.0893 250.734 29.4313 251.706 30.1153C252.678 30.7633 253.164 31.7713 253.164 33.1393C253.164 34.5434 252.768 35.8573 251.976 37.0813C251.184 38.3053 250.104 39.4213 248.736 40.4293C247.404 41.4373 245.928 42.3373 244.308 43.1294C242.724 43.9214 241.122 44.6054 239.502 45.1814C237.882 45.7574 236.37 46.2254 234.966 46.5853L235.02 45.8293ZM262.131 55.9814C262.779 55.9814 263.517 55.6034 264.345 54.8474C265.173 54.0554 266.019 52.9574 266.883 51.5534C267.747 50.1494 268.575 48.4753 269.367 46.5313C270.159 44.5874 270.843 42.4633 271.419 40.1593L270.285 45.9914C269.241 49.0514 268.125 51.4994 266.937 53.3354C265.785 55.1714 264.561 56.4854 263.265 57.2774C262.005 58.0694 260.691 58.4654 259.323 58.4654C257.379 58.4654 255.939 57.8714 255.003 56.6834C254.067 55.4594 253.599 53.8394 253.599 51.8234C253.599 49.9514 253.905 47.9893 254.517 45.9374C255.129 43.8493 255.975 41.8153 257.055 39.8353C258.171 37.8193 259.431 36.0193 260.835 34.4353C262.239 32.8153 263.733 31.5193 265.317 30.5473C266.901 29.5753 268.485 29.0893 270.069 29.0893C271.293 29.0893 272.229 29.6113 272.877 30.6553C273.525 31.6633 273.687 33.2113 273.363 35.2993L272.769 35.6234C273.021 34.1113 272.949 32.9233 272.553 32.0593C272.193 31.1953 271.581 30.7633 270.717 30.7633C269.889 30.7633 269.007 31.1953 268.071 32.0593C267.171 32.9233 266.271 34.0933 265.371 35.5693C264.471 37.0453 263.643 38.7193 262.887 40.5914C262.167 42.4633 261.591 44.4073 261.159 46.4234C260.727 48.4394 260.511 50.4014 260.511 52.3094C260.511 53.6414 260.637 54.5954 260.889 55.1714C261.177 55.7114 261.591 55.9814 262.131 55.9814ZM274.281 29.8453C275.577 29.8093 276.783 29.7373 277.899 29.6293C279.051 29.5213 280.149 29.3413 281.193 29.0893L274.227 53.0654C274.083 53.4974 273.975 53.9474 273.903 54.4154C273.867 54.8474 273.903 55.2254 274.011 55.5494C274.155 55.8374 274.461 55.9814 274.929 55.9814C275.505 55.9814 276.099 55.6754 276.711 55.0634C277.323 54.4514 277.953 53.2094 278.601 51.3374L279.411 48.9074H280.437L279.087 52.8494C278.583 54.3254 277.953 55.4774 277.197 56.3054C276.441 57.0974 275.631 57.6554 274.767 57.9794C273.939 58.3034 273.111 58.4654 272.283 58.4654C270.555 58.4654 269.331 57.9254 268.611 56.8454C268.143 56.0534 267.963 55.0814 268.071 53.9294C268.179 52.7774 268.413 51.5354 268.773 50.2033L274.281 29.8453ZM290.799 57.7094H284.157L290.637 34.4353C290.961 33.3553 291.069 32.5993 290.961 32.1673C290.853 31.7353 290.529 31.5193 289.989 31.5193C289.305 31.5193 288.675 31.8613 288.099 32.5453C287.523 33.2293 286.929 34.4353 286.317 36.1633L285.399 38.7013H284.373L285.777 34.6513C286.281 33.2114 286.911 32.0953 287.667 31.3033C288.423 30.4753 289.251 29.8993 290.151 29.5753C291.051 29.2513 291.969 29.0893 292.905 29.0893C294.057 29.0893 294.903 29.3233 295.443 29.7913C296.019 30.2593 296.379 30.8714 296.523 31.6274C296.703 32.3833 296.739 33.2114 296.631 34.1114C296.559 34.9753 296.415 35.8213 296.199 36.6493L290.799 57.7094ZM304.623 30.3313C303.831 30.3313 303.021 30.6193 302.193 31.1953C301.365 31.7353 300.501 32.6173 299.601 33.8413C298.701 35.0653 297.783 36.6853 296.847 38.7013C295.947 40.6813 295.011 43.1113 294.039 45.9914C293.067 48.8354 292.095 52.2014 291.123 56.0894L292.419 48.9074C293.535 45.1274 294.579 41.9773 295.551 39.4573C296.559 36.9013 297.531 34.8673 298.467 33.3553C299.439 31.8073 300.465 30.7093 301.545 30.0613C302.625 29.4133 303.795 29.0893 305.055 29.0893C306.351 29.0893 307.341 29.4673 308.025 30.2234C308.745 30.9793 309.105 31.9153 309.105 33.0313C309.105 33.9313 308.889 34.7773 308.457 35.5693C308.025 36.3253 307.449 36.9373 306.729 37.4053C306.045 37.8373 305.253 38.0533 304.353 38.0533C303.453 38.0533 302.733 37.8193 302.193 37.3514C301.689 36.8833 301.437 36.1993 301.437 35.2993C301.437 34.5073 301.617 33.7874 301.977 33.1393C302.337 32.4913 302.805 31.9513 303.381 31.5193C303.957 31.0513 304.587 30.7273 305.271 30.5473C305.199 30.4754 305.109 30.4214 305.001 30.3853C304.893 30.3493 304.767 30.3313 304.623 30.3313ZM311.269 56.8994C311.557 57.0434 311.863 57.1694 312.187 57.2774C312.511 57.3494 312.961 57.3854 313.537 57.3854C314.905 57.3854 316.039 56.9534 316.939 56.0894C317.875 55.1894 318.343 53.9474 318.343 52.3634C318.343 51.2114 318.091 50.0414 317.587 48.8534C317.119 47.6654 316.399 46.3513 315.427 44.9113C314.563 43.6513 313.771 42.4093 313.051 41.1853C312.367 39.9614 312.025 38.5574 312.025 36.9734C312.025 35.4253 312.403 34.0753 313.159 32.9233C313.915 31.7353 314.995 30.7993 316.399 30.1153C317.803 29.4313 319.441 29.0893 321.313 29.0893C322.537 29.0893 323.743 29.2333 324.931 29.5213C326.119 29.8094 327.091 30.3314 327.847 31.0873C328.603 31.8433 328.981 32.9413 328.981 34.3813C328.981 34.8853 328.873 35.4253 328.657 36.0014C328.441 36.5413 328.117 37.0093 327.685 37.4053C327.253 37.8013 326.677 37.9994 325.957 37.9994C325.201 37.9994 324.571 37.7114 324.067 37.1353C323.563 36.5233 323.311 35.7493 323.311 34.8133C323.311 33.9853 323.455 33.2113 323.743 32.4914C324.067 31.7713 324.445 31.1413 324.877 30.6013C324.373 30.3133 323.653 30.1693 322.717 30.1693C321.421 30.1693 320.377 30.5833 319.585 31.4113C318.793 32.2393 318.397 33.4093 318.397 34.9213C318.397 35.7133 318.523 36.4693 318.775 37.1893C319.063 37.8733 319.441 38.5933 319.909 39.3494C320.413 40.0693 320.971 40.9153 321.583 41.8873C322.591 43.5073 323.383 44.9653 323.959 46.2613C324.535 47.5214 324.823 48.8174 324.823 50.1494C324.823 51.7334 324.391 53.1554 323.527 54.4154C322.699 55.6754 321.547 56.6654 320.071 57.3854C318.595 58.1054 316.867 58.4654 314.887 58.4654C313.483 58.4654 312.133 58.2674 310.837 57.8714C309.577 57.5114 308.533 56.8994 307.705 56.0354C306.913 55.1714 306.517 53.9834 306.517 52.4714C306.517 51.6434 306.751 50.8874 307.219 50.2033C307.651 49.4834 308.335 49.1234 309.271 49.1234C310.207 49.1234 310.909 49.5014 311.377 50.2573C311.845 51.0134 312.079 51.9494 312.079 53.0654C312.079 53.8574 311.971 54.5954 311.755 55.2794C311.575 55.9274 311.413 56.4674 311.269 56.8994ZM360.685 30.1693C359.749 30.1693 358.795 30.6553 357.823 31.6274C356.851 32.5633 355.933 33.8593 355.069 35.5153C354.205 37.1353 353.413 38.9533 352.693 40.9694C352.009 42.9854 351.469 45.0734 351.073 47.2334C350.677 49.3574 350.479 51.3914 350.479 53.3354C350.479 54.7754 350.659 55.8194 351.019 56.4674C351.415 57.0794 351.991 57.3854 352.747 57.3854C353.647 57.3854 354.583 56.9174 355.555 55.9814C356.527 55.0454 357.445 53.7854 358.309 52.2014C359.209 50.5814 360.001 48.7814 360.685 46.8014C361.369 44.7853 361.909 42.6973 362.305 40.5373C362.701 38.3773 362.899 36.2713 362.899 34.2193C362.899 32.7073 362.701 31.6633 362.305 31.0873C361.945 30.4753 361.405 30.1693 360.685 30.1693ZM344.107 49.7174C344.107 48.0974 344.323 46.3514 344.755 44.4794C345.223 42.6073 345.907 40.7713 346.807 38.9714C347.707 37.1353 348.823 35.4793 350.155 34.0034C351.523 32.4913 353.107 31.3033 354.907 30.4394C356.707 29.5393 358.741 29.0893 361.009 29.0893C363.601 29.0893 365.617 29.8273 367.057 31.3033C368.533 32.7433 369.271 34.9213 369.271 37.8373C369.271 39.4573 369.037 41.2033 368.569 43.0753C368.137 44.9473 367.471 46.8013 366.571 48.6373C365.671 50.4374 364.537 52.0934 363.169 53.6054C361.837 55.0814 360.271 56.2694 358.471 57.1694C356.671 58.0334 354.637 58.4654 352.369 58.4654C349.777 58.4654 347.743 57.7274 346.267 56.2514C344.827 54.7754 344.107 52.5974 344.107 49.7174ZM374.327 30.9253L374.651 29.8453H391.877L391.553 30.9253H374.327ZM393.227 16.3993C392.615 16.3993 392.075 16.5073 391.607 16.7233C391.139 16.9393 390.707 17.2273 390.311 17.5873C389.807 18.0553 389.339 18.7573 388.907 19.6933C388.511 20.6293 388.133 21.7273 387.773 22.9874C387.413 24.2113 387.035 25.5613 386.639 27.0373L375.893 67.1054C374.597 67.1414 373.391 67.2134 372.275 67.3214C371.195 67.4294 370.133 67.6094 369.089 67.8614L379.187 30.1153C379.979 27.1273 380.843 24.6613 381.779 22.7174C382.751 20.7733 383.921 19.2253 385.289 18.0733C386.225 17.2453 387.323 16.6153 388.583 16.1833C389.879 15.7153 391.211 15.4813 392.579 15.4813C394.631 15.4813 396.215 15.9313 397.331 16.8313C398.483 17.6953 399.059 18.8113 399.059 20.1793C399.059 20.8993 398.861 21.6013 398.465 22.2853C398.069 22.9693 397.529 23.5273 396.845 23.9594C396.197 24.3913 395.441 24.6073 394.577 24.6073C393.605 24.6073 392.849 24.3913 392.309 23.9594C391.769 23.4914 391.517 22.8433 391.553 22.0153C391.553 20.9353 391.895 19.9813 392.579 19.1533C393.263 18.2893 394.163 17.6773 395.279 17.3173C395.207 17.0653 394.973 16.8493 394.577 16.6693C394.217 16.4893 393.767 16.3993 393.227 16.3993Z" fill="#6F72AF"/>
<path d="M122.112 85.8635C122.048 86.5675 122 87.2475 121.968 87.9035C121.952 88.5595 121.944 89.0635 121.944 89.4155C121.944 89.7355 121.952 90.0395 121.968 90.3275C121.984 90.6155 122 90.8555 122.016 91.0475H121.464C121.304 89.8795 121.056 88.9595 120.72 88.2875C120.384 87.5995 119.944 87.1195 119.4 86.8475C118.872 86.5595 118.248 86.4155 117.528 86.4155H116.544C116.08 86.4155 115.728 86.4555 115.488 86.5355C115.248 86.6155 115.088 86.7755 115.008 87.0155C114.928 87.2555 114.888 87.6235 114.888 88.1195V100.599C114.888 101.095 114.928 101.463 115.008 101.703C115.088 101.943 115.248 102.103 115.488 102.183C115.728 102.263 116.08 102.303 116.544 102.303H117.72C118.44 102.303 119.072 102.151 119.616 101.847C120.176 101.527 120.648 100.991 121.032 100.239C121.432 99.4875 121.736 98.4715 121.944 97.1915H122.496C122.448 97.7035 122.424 98.3755 122.424 99.2075C122.424 99.5755 122.432 100.095 122.448 100.767C122.464 101.439 122.512 102.135 122.592 102.855C121.776 102.823 120.856 102.807 119.832 102.807C118.808 102.791 117.896 102.783 117.096 102.783C116.696 102.783 116.184 102.783 115.56 102.783C114.936 102.783 114.264 102.791 113.544 102.807C112.824 102.807 112.096 102.815 111.36 102.831C110.624 102.831 109.928 102.839 109.272 102.855V102.375C109.784 102.343 110.168 102.279 110.424 102.183C110.68 102.087 110.848 101.895 110.928 101.607C111.024 101.319 111.072 100.887 111.072 100.311V88.4075C111.072 87.8155 111.024 87.3835 110.928 87.1115C110.848 86.8235 110.672 86.6315 110.4 86.5355C110.144 86.4235 109.768 86.3595 109.272 86.3435V85.8635C109.928 85.8795 110.624 85.8955 111.36 85.9115C112.096 85.9115 112.824 85.9195 113.544 85.9355C114.264 85.9355 114.936 85.9355 115.56 85.9355C116.184 85.9355 116.696 85.9355 117.096 85.9355C117.832 85.9355 118.664 85.9355 119.592 85.9355C120.536 85.9195 121.376 85.8955 122.112 85.8635ZM118.368 94.0715C118.368 94.0715 118.368 94.1515 118.368 94.3115C118.368 94.4715 118.368 94.5515 118.368 94.5515H114.168C114.168 94.5515 114.168 94.4715 114.168 94.3115C114.168 94.1515 114.168 94.0715 114.168 94.0715H118.368ZM119.064 90.9035C119 91.8155 118.968 92.5115 118.968 92.9915C118.984 93.4715 118.992 93.9115 118.992 94.3115C118.992 94.7115 119 95.1515 119.016 95.6315C119.032 96.1115 119.072 96.8075 119.136 97.7195H118.584C118.504 97.1595 118.352 96.6395 118.128 96.1595C117.92 95.6795 117.616 95.2955 117.216 95.0075C116.816 94.7035 116.296 94.5515 115.656 94.5515V94.0715C116.136 94.0715 116.544 93.9755 116.88 93.7835C117.216 93.5755 117.488 93.3115 117.696 92.9915C117.92 92.6555 118.096 92.3035 118.224 91.9355C118.352 91.5675 118.448 91.2235 118.512 90.9035H119.064ZM145.891 90.4475V90.9515C145.571 90.9515 145.331 91.0235 145.171 91.1675C145.027 91.3115 145.035 91.5115 145.195 91.7675L151.507 101.151C151.699 101.439 151.899 101.703 152.107 101.943C152.331 102.167 152.579 102.303 152.851 102.351V102.855C152.611 102.839 152.243 102.823 151.747 102.807C151.267 102.775 150.779 102.759 150.283 102.759C149.707 102.759 149.115 102.775 148.507 102.807C147.899 102.823 147.451 102.839 147.163 102.855V102.351C147.483 102.351 147.715 102.279 147.859 102.135C148.019 101.991 148.019 101.791 147.859 101.535L141.547 92.1515C141.275 91.7515 141.043 91.4635 140.851 91.2875C140.675 91.0955 140.459 90.9835 140.203 90.9515V90.4475C140.475 90.4635 140.883 90.4875 141.427 90.5195C141.971 90.5355 142.515 90.5435 143.059 90.5435C143.587 90.5435 144.123 90.5355 144.667 90.5195C145.211 90.4875 145.619 90.4635 145.891 90.4475ZM145.339 97.0715C145.339 97.0715 145.347 97.1195 145.363 97.2155C145.395 97.3115 145.419 97.4075 145.435 97.5035C145.467 97.5995 145.483 97.6475 145.483 97.6475L144.523 98.8715C144.043 99.4955 143.779 100.071 143.731 100.599C143.683 101.111 143.819 101.527 144.139 101.847C144.459 102.151 144.899 102.327 145.459 102.375V102.855C145.155 102.839 144.779 102.831 144.331 102.831C143.899 102.815 143.475 102.807 143.059 102.807C142.643 102.791 142.291 102.783 142.003 102.783C141.651 102.783 141.339 102.791 141.067 102.807C140.811 102.807 140.563 102.823 140.323 102.855V102.375C140.691 102.231 141.043 102.023 141.379 101.751C141.715 101.463 142.091 101.055 142.507 100.527L145.339 97.0715ZM152.155 90.4475V90.9275C151.819 91.0235 151.467 91.2315 151.099 91.5515C150.731 91.8715 150.347 92.2795 149.947 92.7755L147.307 96.0875C147.307 96.0875 147.291 96.0475 147.259 95.9675C147.243 95.8715 147.219 95.7755 147.187 95.6795C147.171 95.5835 147.163 95.5355 147.163 95.5355L148.363 93.9275C148.795 93.3675 149.059 92.8715 149.155 92.4395C149.251 92.0075 149.179 91.6555 148.939 91.3835C148.715 91.1115 148.315 90.9595 147.739 90.9275V90.4475C148.203 90.4635 148.675 90.4795 149.155 90.4955C149.635 90.5115 150.067 90.5195 150.451 90.5195C150.819 90.5195 151.139 90.5115 151.411 90.4955C151.683 90.4795 151.931 90.4635 152.155 90.4475ZM174.647 90.1835V104.823C174.647 105.575 174.839 106.071 175.223 106.311C175.607 106.567 176.135 106.695 176.807 106.695V107.199C176.391 107.183 175.815 107.159 175.079 107.127C174.359 107.111 173.591 107.103 172.775 107.103C172.183 107.103 171.599 107.111 171.023 107.127C170.463 107.159 170.039 107.183 169.751 107.199V106.695C170.279 106.695 170.647 106.583 170.855 106.359C171.079 106.135 171.191 105.703 171.191 105.063V93.0635C171.191 92.3435 171.079 91.8155 170.855 91.4795C170.631 91.1275 170.231 90.9515 169.655 90.9515V90.4475C170.167 90.4955 170.663 90.5195 171.143 90.5195C171.799 90.5195 172.423 90.4955 173.015 90.4475C173.607 90.3835 174.151 90.2955 174.647 90.1835ZM178.367 90.1115C179.183 90.1115 179.911 90.3355 180.551 90.7835C181.191 91.2155 181.703 91.8795 182.087 92.7755C182.471 93.6555 182.663 94.7595 182.663 96.0875C182.663 97.2555 182.527 98.2795 182.255 99.1595C181.999 100.039 181.623 100.783 181.127 101.391C180.647 101.983 180.063 102.431 179.375 102.735C178.703 103.039 177.943 103.191 177.095 103.191C176.471 103.191 175.903 103.079 175.391 102.855C174.879 102.647 174.487 102.343 174.215 101.943L174.455 101.631C174.615 101.919 174.839 102.143 175.127 102.303C175.431 102.463 175.775 102.543 176.159 102.543C176.879 102.543 177.447 102.303 177.863 101.823C178.279 101.327 178.575 100.639 178.751 99.7595C178.943 98.8635 179.039 97.7995 179.039 96.5675C179.039 95.1915 178.951 94.1115 178.775 93.3275C178.599 92.5435 178.359 91.9835 178.055 91.6475C177.751 91.3115 177.383 91.1435 176.951 91.1435C176.375 91.1435 175.847 91.3675 175.367 91.8155C174.903 92.2635 174.639 92.9035 174.575 93.7355L174.455 92.8955C174.743 91.9835 175.231 91.2955 175.919 90.8315C176.623 90.3515 177.439 90.1115 178.367 90.1115ZM206.653 90.1115C208.061 90.1115 209.165 90.5275 209.965 91.3595C210.765 92.1915 211.165 93.5515 211.165 95.4395H203.269L203.221 94.9835H208.141C208.157 94.1995 208.109 93.4795 207.997 92.8235C207.885 92.1515 207.709 91.6155 207.469 91.2155C207.229 90.8155 206.909 90.6155 206.509 90.6155C205.949 90.6155 205.469 90.9675 205.069 91.6715C204.685 92.3755 204.453 93.5435 204.373 95.1755L204.445 95.3195C204.429 95.5115 204.413 95.7115 204.397 95.9195C204.397 96.1275 204.397 96.3435 204.397 96.5675C204.397 97.6715 204.549 98.5675 204.853 99.2555C205.173 99.9435 205.573 100.447 206.053 100.767C206.533 101.071 207.021 101.223 207.517 101.223C207.853 101.223 208.197 101.175 208.549 101.079C208.917 100.967 209.285 100.775 209.653 100.503C210.021 100.215 210.365 99.8155 210.685 99.3035L211.117 99.4475C210.925 100.055 210.621 100.647 210.205 101.223C209.789 101.799 209.261 102.271 208.621 102.639C207.981 103.007 207.213 103.191 206.317 103.191C205.229 103.191 204.269 102.959 203.437 102.495C202.605 102.031 201.949 101.327 201.469 100.383C201.005 99.4395 200.773 98.2395 200.773 96.7835C200.773 95.2955 201.021 94.0555 201.517 93.0635C202.029 92.0715 202.725 91.3355 203.605 90.8555C204.501 90.3595 205.517 90.1115 206.653 90.1115ZM236.99 90.1115C237.502 90.1115 237.918 90.2235 238.238 90.4475C238.558 90.6555 238.79 90.9275 238.934 91.2635C239.094 91.5995 239.174 91.9515 239.174 92.3195C239.174 92.9115 238.998 93.3995 238.646 93.7835C238.31 94.1515 237.862 94.3355 237.302 94.3355C236.742 94.3355 236.302 94.1995 235.982 93.9275C235.678 93.6395 235.526 93.2635 235.526 92.7995C235.526 92.3515 235.622 91.9835 235.814 91.6955C236.022 91.3915 236.278 91.1355 236.582 90.9275C236.358 90.8635 236.134 90.8715 235.91 90.9515C235.606 90.9995 235.318 91.1275 235.046 91.3355C234.774 91.5275 234.542 91.7755 234.35 92.0795C234.158 92.3675 234.006 92.6875 233.894 93.0395C233.782 93.3755 233.726 93.7035 233.726 94.0235V100.383C233.726 101.151 233.91 101.671 234.278 101.943C234.662 102.215 235.23 102.351 235.982 102.351V102.855C235.614 102.839 235.078 102.823 234.374 102.807C233.67 102.775 232.934 102.759 232.166 102.759C231.526 102.759 230.878 102.775 230.222 102.807C229.566 102.823 229.07 102.839 228.734 102.855V102.351C229.294 102.351 229.686 102.231 229.91 101.991C230.15 101.751 230.27 101.295 230.27 100.623V93.0635C230.27 92.3435 230.158 91.8155 229.934 91.4795C229.726 91.1275 229.326 90.9515 228.734 90.9515V90.4475C229.246 90.4955 229.742 90.5195 230.222 90.5195C230.894 90.5195 231.518 90.4955 232.094 90.4475C232.686 90.3835 233.23 90.2955 233.726 90.1835V92.4155C233.918 91.9835 234.174 91.5915 234.494 91.2395C234.814 90.8875 235.182 90.6155 235.598 90.4235C236.014 90.2155 236.478 90.1115 236.99 90.1115ZM259.377 84.2555C260.049 84.2555 260.577 84.4235 260.961 84.7595C261.361 85.0795 261.561 85.5275 261.561 86.1035C261.561 86.6795 261.361 87.1355 260.961 87.4715C260.577 87.7915 260.049 87.9515 259.377 87.9515C258.705 87.9515 258.169 87.7915 257.769 87.4715C257.385 87.1355 257.193 86.6795 257.193 86.1035C257.193 85.5275 257.385 85.0795 257.769 84.7595C258.169 84.4235 258.705 84.2555 259.377 84.2555ZM261.249 90.1835V100.623C261.249 101.295 261.361 101.751 261.585 101.991C261.825 102.231 262.225 102.351 262.785 102.351V102.855C262.497 102.839 262.049 102.823 261.441 102.807C260.833 102.775 260.217 102.759 259.593 102.759C258.969 102.759 258.337 102.775 257.697 102.807C257.057 102.823 256.577 102.839 256.257 102.855V102.351C256.817 102.351 257.209 102.231 257.433 101.991C257.673 101.751 257.793 101.295 257.793 100.623V93.0635C257.793 92.3435 257.681 91.8155 257.457 91.4795C257.249 91.1275 256.849 90.9515 256.257 90.9515V90.4475C256.769 90.4955 257.265 90.5195 257.745 90.5195C258.417 90.5195 259.041 90.4955 259.617 90.4475C260.209 90.3835 260.753 90.2955 261.249 90.1835ZM286.34 90.1115C287.748 90.1115 288.852 90.5275 289.652 91.3595C290.452 92.1915 290.852 93.5515 290.852 95.4395H282.956L282.908 94.9835H287.828C287.844 94.1995 287.796 93.4795 287.684 92.8235C287.572 92.1515 287.396 91.6155 287.156 91.2155C286.916 90.8155 286.596 90.6155 286.196 90.6155C285.636 90.6155 285.156 90.9675 284.756 91.6715C284.372 92.3755 284.14 93.5435 284.06 95.1755L284.132 95.3195C284.116 95.5115 284.1 95.7115 284.084 95.9195C284.084 96.1275 284.084 96.3435 284.084 96.5675C284.084 97.6715 284.236 98.5675 284.54 99.2555C284.86 99.9435 285.26 100.447 285.74 100.767C286.22 101.071 286.708 101.223 287.204 101.223C287.54 101.223 287.884 101.175 288.236 101.079C288.604 100.967 288.972 100.775 289.34 100.503C289.708 100.215 290.052 99.8155 290.372 99.3035L290.804 99.4475C290.612 100.055 290.308 100.647 289.892 101.223C289.476 101.799 288.948 102.271 288.308 102.639C287.668 103.007 286.9 103.191 286.004 103.191C284.916 103.191 283.956 102.959 283.124 102.495C282.292 102.031 281.636 101.327 281.156 100.383C280.692 99.4395 280.46 98.2395 280.46 96.7835C280.46 95.2955 280.708 94.0555 281.204 93.0635C281.716 92.0715 282.412 91.3355 283.292 90.8555C284.188 90.3595 285.204 90.1115 286.34 90.1115ZM317.349 90.1115C318.021 90.1115 318.565 90.1995 318.981 90.3755C319.413 90.5355 319.749 90.7595 319.989 91.0475C320.245 91.3515 320.429 91.7435 320.541 92.2235C320.669 92.7035 320.733 93.3515 320.733 94.1675V100.623C320.733 101.295 320.845 101.751 321.069 101.991C321.309 102.231 321.709 102.351 322.269 102.351V102.855C321.965 102.839 321.509 102.823 320.901 102.807C320.293 102.775 319.693 102.759 319.101 102.759C318.493 102.759 317.893 102.775 317.301 102.807C316.725 102.823 316.285 102.839 315.981 102.855V102.351C316.461 102.351 316.797 102.231 316.989 101.991C317.181 101.751 317.277 101.295 317.277 100.623V93.1595C317.277 92.7595 317.237 92.4155 317.157 92.1275C317.077 91.8235 316.933 91.5915 316.725 91.4315C316.517 91.2555 316.205 91.1675 315.789 91.1675C315.357 91.1675 314.957 91.2875 314.589 91.5275C314.237 91.7675 313.949 92.1035 313.725 92.5355C313.517 92.9515 313.413 93.4235 313.413 93.9515V100.623C313.413 101.295 313.509 101.751 313.701 101.991C313.909 102.231 314.245 102.351 314.709 102.351V102.855C314.421 102.839 313.997 102.823 313.437 102.807C312.893 102.775 312.325 102.759 311.733 102.759C311.125 102.759 310.501 102.775 309.861 102.807C309.221 102.823 308.741 102.839 308.421 102.855V102.351C308.981 102.351 309.373 102.231 309.597 101.991C309.837 101.751 309.957 101.295 309.957 100.623V93.0635C309.957 92.3435 309.845 91.8155 309.621 91.4795C309.413 91.1275 309.013 90.9515 308.421 90.9515V90.4475C308.933 90.4955 309.429 90.5195 309.909 90.5195C310.581 90.5195 311.205 90.4955 311.781 90.4475C312.373 90.3835 312.917 90.2955 313.413 90.1835V92.3435C313.813 91.5275 314.357 90.9515 315.045 90.6155C315.733 90.2795 316.501 90.1115 317.349 90.1115ZM345.723 90.1115C346.347 90.1115 346.915 90.1835 347.427 90.3275C347.955 90.4555 348.387 90.6235 348.723 90.8315C349.139 91.0875 349.459 91.4075 349.683 91.7915C349.923 92.1595 350.043 92.5915 350.043 93.0875C350.043 93.6475 349.867 94.1115 349.515 94.4795C349.163 94.8315 348.707 95.0075 348.147 95.0075C347.587 95.0075 347.139 94.8475 346.803 94.5275C346.467 94.2075 346.299 93.7755 346.299 93.2315C346.299 92.7195 346.459 92.2955 346.779 91.9595C347.099 91.6075 347.467 91.3755 347.883 91.2635C347.755 91.1035 347.563 90.9675 347.307 90.8555C347.051 90.7435 346.763 90.6875 346.443 90.6875C345.947 90.6875 345.507 90.8315 345.123 91.1195C344.755 91.4075 344.443 91.8075 344.187 92.3195C343.931 92.8315 343.731 93.4315 343.587 94.1195C343.459 94.8075 343.395 95.5595 343.395 96.3755C343.395 97.6075 343.547 98.5755 343.851 99.2795C344.171 99.9835 344.571 100.479 345.051 100.767C345.547 101.055 346.059 101.199 346.587 101.199C346.891 101.199 347.219 101.151 347.571 101.055C347.939 100.959 348.307 100.767 348.675 100.479C349.059 100.191 349.411 99.7835 349.731 99.2555L350.139 99.3995C349.963 99.9915 349.675 100.583 349.275 101.175C348.875 101.767 348.355 102.255 347.715 102.639C347.075 103.007 346.291 103.191 345.363 103.191C344.323 103.191 343.379 102.967 342.531 102.519C341.699 102.055 341.027 101.351 340.515 100.407C340.019 99.4475 339.771 98.2155 339.771 96.7115C339.771 95.2715 340.027 94.0635 340.539 93.0875C341.067 92.0955 341.779 91.3515 342.675 90.8555C343.571 90.3595 344.587 90.1115 345.723 90.1115ZM373.901 90.1115C375.309 90.1115 376.413 90.5275 377.213 91.3595C378.013 92.1915 378.413 93.5515 378.413 95.4395H370.517L370.469 94.9835H375.389C375.405 94.1995 375.357 93.4795 375.245 92.8235C375.133 92.1515 374.957 91.6155 374.717 91.2155C374.477 90.8155 374.157 90.6155 373.757 90.6155C373.197 90.6155 372.717 90.9675 372.317 91.6715C371.933 92.3755 371.701 93.5435 371.621 95.1755L371.693 95.3195C371.677 95.5115 371.661 95.7115 371.645 95.9195C371.645 96.1275 371.645 96.3435 371.645 96.5675C371.645 97.6715 371.797 98.5675 372.101 99.2555C372.421 99.9435 372.821 100.447 373.301 100.767C373.781 101.071 374.269 101.223 374.765 101.223C375.101 101.223 375.445 101.175 375.797 101.079C376.165 100.967 376.533 100.775 376.901 100.503C377.269 100.215 377.613 99.8155 377.933 99.3035L378.365 99.4475C378.173 100.055 377.869 100.647 377.453 101.223C377.037 101.799 376.509 102.271 375.869 102.639C375.229 103.007 374.461 103.191 373.565 103.191C372.477 103.191 371.517 102.959 370.685 102.495C369.853 102.031 369.197 101.327 368.717 100.383C368.253 99.4395 368.021 98.2395 368.021 96.7835C368.021 95.2955 368.269 94.0555 368.765 93.0635C369.277 92.0715 369.973 91.3355 370.853 90.8555C371.749 90.3595 372.765 90.1115 373.901 90.1115Z" fill="#6F72AF"/>
<path d="M55.7301 83.8231V100.079L63.5186 103.321V79.5631C61.072 81.241 58.4627 82.6682 55.7301 83.8231ZM13.6622 79.5631V103.159L21.4507 99.9169V83.8231C18.7181 82.6682 16.1087 81.241 13.6622 79.5631ZM38.5903 87.2814C34.9125 87.2834 31.2489 86.8257 27.6847 85.9189V110.454L38.5903 105.915L49.4959 110.453V85.9189C45.9316 86.8256 42.268 87.2833 38.5903 87.2814ZM38.5903 5.09534C17.6504 5.09534 0.614502 22.1312 0.614502 43.0713C0.614502 64.0114 17.6504 81.0471 38.5903 81.0471C59.5302 81.0471 76.5663 64.0112 76.5663 43.0711C76.5663 22.131 59.5304 5.09534 38.5903 5.09534ZM38.5903 73.0224C21.9896 73.0224 8.48384 59.5166 8.48384 42.916C8.48384 26.3151 21.9896 12.8093 38.5903 12.8093C55.191 12.8093 68.6967 26.3151 68.6967 42.916C68.6967 59.5169 55.1912 73.0224 38.5903 73.0224ZM38.5903 19.0433C25.4271 19.0433 14.7179 29.7524 14.7179 42.916C14.7179 56.0795 25.4271 66.7882 38.5903 66.7882C51.7535 66.7882 62.4627 56.0791 62.4627 42.9158C62.4627 29.7524 51.7537 19.0433 38.5903 19.0433ZM48.402 56.8483L38.5903 51.6901L28.7788 56.8483L30.6526 45.9232L22.715 38.186L33.6848 36.5918L38.5903 26.6515L43.496 36.5918L54.4658 38.186L46.5282 45.9232L48.402 56.8483Z" fill="#6F72AF"/>
</svg>
