<svg width="20" height="18" viewBox="0 0 20 18" fill="none" xmlns="http://www.w3.org/2000/svg">
<path d="M3 10.8193V12.7831C3.008 14.1637 3.672 13.9491 4.164 13.5348L7 11.0206V12.2921C7 13.4852 7.28 13.765 8.5 13.765H13C13 13.765 15.6045 16.7722 15.625 16.7521C16 17.2018 17.0155 17.0486 17 16.2198V13.765H18.5C19.725 13.765 20 13.466 20 12.2921V4.9277C20 3.74939 19.705 3.45481 18.5 3.45481H13.5V2.47289C13.5 1.26021 13.27 1 12 1H1.5C0.32 1 0 1.25039 0 2.47289V8.85541C0 10.0529 0.275 10.8193 1.5 10.8193H3ZM15.5 12.2921V14.61L13.5 12.2921H9C8.625 12.2921 8.5 12.1596 8.5 11.8012V5.41867C8.5 5.08972 8.655 4.9277 9 4.9277H18C18.3445 4.9277 18.5 5.10936 18.5 5.38921V11.8012C18.5 12.1552 18.3205 12.2921 18 12.2921H15.5Z" fill="#6F72AF"/>
</svg>
