<svg width="490" height="79" viewBox="0 0 490 79" fill="none" xmlns="http://www.w3.org/2000/svg">
<path d="M85.5846 62.6838V51.4038H90.1766C91.3606 51.4038 92.2726 51.6918 92.9126 52.2678C93.5526 52.8332 93.8726 53.6225 93.8726 54.6358C93.8726 55.6278 93.5526 56.4172 92.9126 57.0038C92.2726 57.5798 91.3606 57.8678 90.1766 57.8678H86.9126V62.6838H85.5846ZM86.9126 56.7638H90.0486C90.87 56.7638 91.4886 56.5772 91.9046 56.2038C92.3313 55.8305 92.5446 55.3078 92.5446 54.6358C92.5446 53.9532 92.3313 53.4252 91.9046 53.0518C91.4886 52.6785 90.87 52.4918 90.0486 52.4918H86.9126V56.7638ZM95.8625 62.6838V54.6518H97.1585V62.6838H95.8625ZM95.7025 52.8278V51.3718H97.3025V52.8278H95.7025ZM102.971 62.8278C102.203 62.8278 101.531 62.6625 100.955 62.3318C100.39 61.9905 99.9523 61.5105 99.643 60.8918C99.3337 60.2625 99.179 59.5212 99.179 58.6678C99.179 57.8038 99.3337 57.0625 99.643 56.4438C99.9523 55.8252 100.39 55.3505 100.955 55.0198C101.531 54.6785 102.203 54.5078 102.971 54.5078C103.75 54.5078 104.422 54.6785 104.987 55.0198C105.563 55.3505 106.006 55.8252 106.315 56.4438C106.635 57.0625 106.795 57.8038 106.795 58.6678C106.795 59.5212 106.635 60.2625 106.315 60.8918C106.006 61.5105 105.563 61.9905 104.987 62.3318C104.422 62.6625 103.75 62.8278 102.971 62.8278ZM102.971 61.7718C103.739 61.7718 104.347 61.5105 104.795 60.9878C105.243 60.4545 105.467 59.6812 105.467 58.6678C105.467 57.6438 105.238 56.8705 104.779 56.3478C104.331 55.8145 103.728 55.5478 102.971 55.5478C102.214 55.5478 101.611 55.8145 101.163 56.3478C100.715 56.8705 100.491 57.6438 100.491 58.6678C100.491 59.6812 100.715 60.4545 101.163 60.9878C101.611 61.5105 102.214 61.7718 102.971 61.7718ZM108.816 62.6838V56.5078C108.816 56.2092 108.8 55.9052 108.768 55.5958C108.746 55.2758 108.72 54.9612 108.688 54.6518H109.936L110.096 56.4118H109.904C110.138 55.7932 110.512 55.3238 111.024 55.0038C111.546 54.6732 112.149 54.5078 112.832 54.5078C113.781 54.5078 114.496 54.7638 114.976 55.2758C115.466 55.7772 115.712 56.5718 115.712 57.6598V62.6838H114.416V57.7398C114.416 56.9825 114.261 56.4332 113.952 56.0918C113.653 55.7398 113.184 55.5638 112.544 55.5638C111.797 55.5638 111.205 55.7932 110.768 56.2518C110.33 56.7105 110.112 57.3238 110.112 58.0918V62.6838H108.816ZM121.759 62.8278C120.5 62.8278 119.508 62.4652 118.783 61.7398C118.057 61.0038 117.695 59.9852 117.695 58.6838C117.695 57.8412 117.855 57.1105 118.175 56.4918C118.495 55.8625 118.943 55.3772 119.519 55.0358C120.095 54.6838 120.756 54.5078 121.503 54.5078C122.239 54.5078 122.857 54.6625 123.359 54.9718C123.86 55.2812 124.244 55.7238 124.511 56.2998C124.777 56.8652 124.911 57.5372 124.911 58.3158V58.7958H118.687V57.9798H124.063L123.791 58.1878C123.791 57.3345 123.599 56.6678 123.215 56.1878C122.831 55.7078 122.26 55.4678 121.503 55.4678C120.703 55.4678 120.079 55.7505 119.631 56.3158C119.183 56.8705 118.959 57.6225 118.959 58.5718V58.7158C118.959 59.7185 119.204 60.4812 119.695 61.0038C120.196 61.5158 120.895 61.7718 121.791 61.7718C122.271 61.7718 122.719 61.7025 123.135 61.5638C123.561 61.4145 123.967 61.1745 124.351 60.8438L124.799 61.7558C124.447 62.0972 123.999 62.3638 123.455 62.5558C122.921 62.7372 122.356 62.8278 121.759 62.8278ZM130.462 62.8278C129.203 62.8278 128.211 62.4652 127.486 61.7398C126.76 61.0038 126.398 59.9852 126.398 58.6838C126.398 57.8412 126.558 57.1105 126.878 56.4918C127.198 55.8625 127.646 55.3772 128.222 55.0358C128.798 54.6838 129.459 54.5078 130.206 54.5078C130.942 54.5078 131.56 54.6625 132.062 54.9718C132.563 55.2812 132.947 55.7238 133.214 56.2998C133.48 56.8652 133.614 57.5372 133.614 58.3158V58.7958H127.39V57.9798H132.766L132.494 58.1878C132.494 57.3345 132.302 56.6678 131.918 56.1878C131.534 55.7078 130.963 55.4678 130.206 55.4678C129.406 55.4678 128.782 55.7505 128.334 56.3158C127.886 56.8705 127.662 57.6225 127.662 58.5718V58.7158C127.662 59.7185 127.907 60.4812 128.398 61.0038C128.899 61.5158 129.598 61.7718 130.494 61.7718C130.974 61.7718 131.422 61.7025 131.838 61.5638C132.264 61.4145 132.67 61.1745 133.054 60.8438L133.502 61.7558C133.15 62.0972 132.702 62.3638 132.158 62.5558C131.624 62.7372 131.059 62.8278 130.462 62.8278ZM135.565 62.6838V56.5878C135.565 56.2678 135.554 55.9425 135.533 55.6118C135.522 55.2812 135.501 54.9612 135.469 54.6518H136.717L136.877 56.6038L136.653 56.6198C136.76 56.1398 136.946 55.7452 137.213 55.4358C137.48 55.1265 137.794 54.8972 138.157 54.7478C138.52 54.5878 138.898 54.5078 139.293 54.5078C139.453 54.5078 139.592 54.5132 139.709 54.5238C139.837 54.5345 139.954 54.5612 140.061 54.6038L140.045 55.7558C139.885 55.7025 139.736 55.6705 139.597 55.6598C139.469 55.6385 139.32 55.6278 139.149 55.6278C138.68 55.6278 138.269 55.7398 137.917 55.9638C137.576 56.1878 137.314 56.4758 137.133 56.8278C136.962 57.1798 136.877 57.5532 136.877 57.9478V62.6838H135.565ZM141.409 62.6838V54.6518H142.705V62.6838H141.409ZM141.249 52.8278V51.3718H142.849V52.8278H141.249ZM145.222 62.6838V56.5078C145.222 56.2092 145.206 55.9052 145.174 55.5958C145.153 55.2758 145.126 54.9612 145.094 54.6518H146.342L146.502 56.4118H146.31C146.545 55.7932 146.918 55.3238 147.43 55.0038C147.953 54.6732 148.555 54.5078 149.238 54.5078C150.187 54.5078 150.902 54.7638 151.382 55.2758C151.873 55.7772 152.118 56.5718 152.118 57.6598V62.6838H150.822V57.7398C150.822 56.9825 150.667 56.4332 150.358 56.0918C150.059 55.7398 149.59 55.5638 148.95 55.5638C148.203 55.5638 147.611 55.7932 147.174 56.2518C146.737 56.7105 146.518 57.3238 146.518 58.0918V62.6838H145.222ZM158.133 66.2518C157.44 66.2518 156.8 66.1665 156.213 65.9958C155.626 65.8252 155.098 65.5638 154.629 65.2118L155.013 64.2358C155.344 64.4705 155.669 64.6572 155.989 64.7958C156.309 64.9345 156.64 65.0358 156.981 65.0998C157.322 65.1745 157.685 65.2118 158.069 65.2118C158.858 65.2118 159.456 65.0038 159.861 64.5878C160.266 64.1718 160.469 63.5798 160.469 62.8118V60.4598H160.629C160.458 61.0892 160.106 61.5905 159.573 61.9638C159.04 62.3265 158.416 62.5078 157.701 62.5078C156.965 62.5078 156.325 62.3478 155.781 62.0278C155.248 61.6972 154.832 61.2332 154.533 60.6358C154.245 60.0278 154.101 59.3132 154.101 58.4918C154.101 57.6812 154.245 56.9772 154.533 56.3798C154.832 55.7825 155.248 55.3238 155.781 55.0038C156.325 54.6732 156.965 54.5078 157.701 54.5078C158.426 54.5078 159.05 54.6892 159.573 55.0518C160.106 55.4145 160.458 55.9158 160.629 56.5558L160.469 56.3958L160.613 54.6518H161.877C161.834 54.9612 161.802 55.2758 161.781 55.5958C161.76 55.9052 161.749 56.2092 161.749 56.5078V62.6358C161.749 63.8305 161.44 64.7318 160.821 65.3398C160.213 65.9478 159.317 66.2518 158.133 66.2518ZM157.941 61.4518C158.72 61.4518 159.333 61.1958 159.781 60.6838C160.229 60.1612 160.453 59.4305 160.453 58.4918C160.453 57.5532 160.229 56.8278 159.781 56.3158C159.333 55.8038 158.72 55.5478 157.941 55.5478C157.173 55.5478 156.56 55.8038 156.101 56.3158C155.642 56.8278 155.413 57.5532 155.413 58.4918C155.413 59.4305 155.642 60.1612 156.101 60.6838C156.56 61.1958 157.173 61.4518 157.941 61.4518ZM168.553 62.6838V51.4038H175.753V52.4918H169.849V56.4118H175.401V57.5158H169.849V61.5798H175.753V62.6838H168.553ZM176.728 62.6838L180.328 58.2198V58.8598L176.92 54.6518H178.488L181.064 57.9318H180.6L183.16 54.6518H184.712L181.352 58.8438V58.2518L184.92 62.6838H183.336L180.584 59.1798H181.064L178.28 62.6838H176.728ZM189.582 62.8278C188.793 62.8278 188.105 62.6572 187.518 62.3158C186.942 61.9745 186.494 61.4892 186.174 60.8598C185.865 60.2305 185.71 59.4838 185.71 58.6198C185.71 57.7452 185.87 57.0038 186.19 56.3958C186.51 55.7772 186.958 55.3078 187.534 54.9878C188.121 54.6678 188.804 54.5078 189.582 54.5078C190.094 54.5078 190.59 54.5985 191.07 54.7798C191.561 54.9612 191.966 55.2172 192.286 55.5478L191.822 56.4758C191.502 56.1665 191.15 55.9372 190.766 55.7878C190.393 55.6385 190.025 55.5638 189.662 55.5638C188.83 55.5638 188.185 55.8252 187.726 56.3478C187.268 56.8705 187.038 57.6332 187.038 58.6358C187.038 59.6278 187.268 60.3958 187.726 60.9398C188.185 61.4838 188.83 61.7558 189.662 61.7558C190.014 61.7558 190.377 61.6865 190.75 61.5478C191.134 61.4092 191.492 61.1798 191.822 60.8598L192.286 61.7718C191.956 62.1132 191.545 62.3745 191.054 62.5558C190.564 62.7372 190.073 62.8278 189.582 62.8278ZM197.54 62.8278C196.281 62.8278 195.289 62.4652 194.564 61.7398C193.839 61.0038 193.476 59.9852 193.476 58.6838C193.476 57.8412 193.636 57.1105 193.956 56.4918C194.276 55.8625 194.724 55.3772 195.3 55.0358C195.876 54.6838 196.537 54.5078 197.284 54.5078C198.02 54.5078 198.639 54.6625 199.14 54.9718C199.641 55.2812 200.025 55.7238 200.292 56.2998C200.559 56.8652 200.692 57.5372 200.692 58.3158V58.7958H194.468V57.9798H199.844L199.572 58.1878C199.572 57.3345 199.38 56.6678 198.996 56.1878C198.612 55.7078 198.041 55.4678 197.284 55.4678C196.484 55.4678 195.86 55.7505 195.412 56.3158C194.964 56.8705 194.74 57.6225 194.74 58.5718V58.7158C194.74 59.7185 194.985 60.4812 195.476 61.0038C195.977 61.5158 196.676 61.7718 197.572 61.7718C198.052 61.7718 198.5 61.7025 198.916 61.5638C199.343 61.4145 199.748 61.1745 200.132 60.8438L200.58 61.7558C200.228 62.0972 199.78 62.3638 199.236 62.5558C198.703 62.7372 198.137 62.8278 197.54 62.8278ZM202.675 62.6838V50.9078H203.971V62.6838H202.675ZM206.488 62.6838V50.9078H207.784V62.6838H206.488ZM213.868 62.8278C212.609 62.8278 211.617 62.4652 210.892 61.7398C210.167 61.0038 209.804 59.9852 209.804 58.6838C209.804 57.8412 209.964 57.1105 210.284 56.4918C210.604 55.8625 211.052 55.3772 211.628 55.0358C212.204 54.6838 212.865 54.5078 213.612 54.5078C214.348 54.5078 214.967 54.6625 215.468 54.9718C215.969 55.2812 216.353 55.7238 216.62 56.2998C216.887 56.8652 217.02 57.5372 217.02 58.3158V58.7958H210.796V57.9798H216.172L215.9 58.1878C215.9 57.3345 215.708 56.6678 215.324 56.1878C214.94 55.7078 214.369 55.4678 213.612 55.4678C212.812 55.4678 212.188 55.7505 211.74 56.3158C211.292 56.8705 211.068 57.6225 211.068 58.5718V58.7158C211.068 59.7185 211.313 60.4812 211.804 61.0038C212.305 61.5158 213.004 61.7718 213.9 61.7718C214.38 61.7718 214.828 61.7025 215.244 61.5638C215.671 61.4145 216.076 61.1745 216.46 60.8438L216.908 61.7558C216.556 62.0972 216.108 62.3638 215.564 62.5558C215.031 62.7372 214.465 62.8278 213.868 62.8278ZM219.003 62.6838V56.5078C219.003 56.2092 218.987 55.9052 218.955 55.5958C218.934 55.2758 218.907 54.9612 218.875 54.6518H220.123L220.283 56.4118H220.091C220.326 55.7932 220.699 55.3238 221.211 55.0038C221.734 54.6732 222.336 54.5078 223.019 54.5078C223.968 54.5078 224.683 54.7638 225.163 55.2758C225.654 55.7772 225.899 56.5718 225.899 57.6598V62.6838H224.603V57.7398C224.603 56.9825 224.448 56.4332 224.139 56.0918C223.84 55.7398 223.371 55.5638 222.731 55.5638C221.984 55.5638 221.392 55.7932 220.955 56.2518C220.518 56.7105 220.299 57.3238 220.299 58.0918V62.6838H219.003ZM231.754 62.8278C230.965 62.8278 230.277 62.6572 229.69 62.3158C229.114 61.9745 228.666 61.4892 228.346 60.8598C228.037 60.2305 227.882 59.4838 227.882 58.6198C227.882 57.7452 228.042 57.0038 228.362 56.3958C228.682 55.7772 229.13 55.3078 229.706 54.9878C230.293 54.6678 230.975 54.5078 231.754 54.5078C232.266 54.5078 232.762 54.5985 233.242 54.7798C233.733 54.9612 234.138 55.2172 234.458 55.5478L233.994 56.4758C233.674 56.1665 233.322 55.9372 232.938 55.7878C232.565 55.6385 232.197 55.5638 231.834 55.5638C231.002 55.5638 230.357 55.8252 229.898 56.3478C229.439 56.8705 229.21 57.6332 229.21 58.6358C229.21 59.6278 229.439 60.3958 229.898 60.9398C230.357 61.4838 231.002 61.7558 231.834 61.7558C232.186 61.7558 232.549 61.6865 232.922 61.5478C233.306 61.4092 233.663 61.1798 233.994 60.8598L234.458 61.7718C234.127 62.1132 233.717 62.3745 233.226 62.5558C232.735 62.7372 232.245 62.8278 231.754 62.8278ZM239.712 62.8278C238.453 62.8278 237.461 62.4652 236.736 61.7398C236.01 61.0038 235.648 59.9852 235.648 58.6838C235.648 57.8412 235.808 57.1105 236.128 56.4918C236.448 55.8625 236.896 55.3772 237.472 55.0358C238.048 54.6838 238.709 54.5078 239.456 54.5078C240.192 54.5078 240.81 54.6625 241.312 54.9718C241.813 55.2812 242.197 55.7238 242.464 56.2998C242.73 56.8652 242.864 57.5372 242.864 58.3158V58.7958H236.64V57.9798H242.016L241.744 58.1878C241.744 57.3345 241.552 56.6678 241.168 56.1878C240.784 55.7078 240.213 55.4678 239.456 55.4678C238.656 55.4678 238.032 55.7505 237.584 56.3158C237.136 56.8705 236.912 57.6225 236.912 58.5718V58.7158C236.912 59.7185 237.157 60.4812 237.648 61.0038C238.149 61.5158 238.848 61.7718 239.744 61.7718C240.224 61.7718 240.672 61.7025 241.088 61.5638C241.514 61.4145 241.92 61.1745 242.304 60.8438L242.752 61.7558C242.4 62.0972 241.952 62.3638 241.408 62.5558C240.874 62.7372 240.309 62.8278 239.712 62.8278ZM249.019 62.6838V54.6518H250.315V62.6838H249.019ZM248.859 52.8278V51.3718H250.459V52.8278H248.859ZM252.831 62.6838V56.5078C252.831 56.2092 252.815 55.9052 252.783 55.5958C252.762 55.2758 252.735 54.9612 252.703 54.6518H253.951L254.111 56.4118H253.919C254.154 55.7932 254.527 55.3238 255.039 55.0038C255.562 54.6732 256.165 54.5078 256.847 54.5078C257.797 54.5078 258.511 54.7638 258.991 55.2758C259.482 55.7772 259.727 56.5718 259.727 57.6598V62.6838H258.431V57.7398C258.431 56.9825 258.277 56.4332 257.967 56.0918C257.669 55.7398 257.199 55.5638 256.559 55.5638C255.813 55.5638 255.221 55.7932 254.783 56.2518C254.346 56.7105 254.127 57.3238 254.127 58.0918V62.6838H252.831ZM266.522 62.6838V51.4038H271.114C272.298 51.4038 273.21 51.6918 273.85 52.2678C274.49 52.8332 274.81 53.6225 274.81 54.6358C274.81 55.6278 274.49 56.4172 273.85 57.0038C273.21 57.5798 272.298 57.8678 271.114 57.8678H267.85V62.6838H266.522ZM267.85 56.7638H270.986C271.807 56.7638 272.426 56.5772 272.842 56.2038C273.269 55.8305 273.482 55.3078 273.482 54.6358C273.482 53.9532 273.269 53.4252 272.842 53.0518C272.426 52.6785 271.807 52.4918 270.986 52.4918H267.85V56.7638ZM276.612 62.6838V56.5878C276.612 56.2678 276.601 55.9425 276.58 55.6118C276.569 55.2812 276.548 54.9612 276.516 54.6518H277.764L277.924 56.6038L277.7 56.6198C277.806 56.1398 277.993 55.7452 278.26 55.4358C278.526 55.1265 278.841 54.8972 279.204 54.7478C279.566 54.5878 279.945 54.5078 280.34 54.5078C280.5 54.5078 280.638 54.5132 280.756 54.5238C280.884 54.5345 281.001 54.5612 281.108 54.6038L281.092 55.7558C280.932 55.7025 280.782 55.6705 280.644 55.6598C280.516 55.6385 280.366 55.6278 280.196 55.6278C279.726 55.6278 279.316 55.7398 278.964 55.9638C278.622 56.1878 278.361 56.4758 278.18 56.8278C278.009 57.1798 277.924 57.5532 277.924 57.9478V62.6838H276.612ZM285.659 62.8278C284.891 62.8278 284.219 62.6625 283.643 62.3318C283.077 61.9905 282.64 61.5105 282.331 60.8918C282.021 60.2625 281.867 59.5212 281.867 58.6678C281.867 57.8038 282.021 57.0625 282.331 56.4438C282.64 55.8252 283.077 55.3505 283.643 55.0198C284.219 54.6785 284.891 54.5078 285.659 54.5078C286.437 54.5078 287.109 54.6785 287.675 55.0198C288.251 55.3505 288.693 55.8252 289.003 56.4438C289.323 57.0625 289.483 57.8038 289.483 58.6678C289.483 59.5212 289.323 60.2625 289.003 60.8918C288.693 61.5105 288.251 61.9905 287.675 62.3318C287.109 62.6625 286.437 62.8278 285.659 62.8278ZM285.659 61.7718C286.427 61.7718 287.035 61.5105 287.483 60.9878C287.931 60.4545 288.155 59.6812 288.155 58.6678C288.155 57.6438 287.925 56.8705 287.467 56.3478C287.019 55.8145 286.416 55.5478 285.659 55.5478C284.901 55.5478 284.299 55.8145 283.851 56.3478C283.403 56.8705 283.179 57.6438 283.179 58.6678C283.179 59.6812 283.403 60.4545 283.851 60.9878C284.299 61.5105 284.901 61.7718 285.659 61.7718ZM291.503 66.1398V56.5078C291.503 56.2092 291.487 55.9052 291.455 55.5958C291.434 55.2758 291.407 54.9612 291.375 54.6518H292.623L292.799 56.5558H292.607C292.778 55.9265 293.124 55.4305 293.647 55.0678C294.17 54.6945 294.794 54.5078 295.519 54.5078C296.244 54.5078 296.868 54.6732 297.391 55.0038C297.924 55.3345 298.34 55.8092 298.639 56.4278C298.938 57.0465 299.087 57.7932 299.087 58.6678C299.087 59.5318 298.938 60.2732 298.639 60.8918C298.351 61.5105 297.94 61.9905 297.407 62.3318C296.874 62.6625 296.244 62.8278 295.519 62.8278C294.804 62.8278 294.186 62.6465 293.663 62.2838C293.14 61.9212 292.794 61.4252 292.623 60.7958H292.799V66.1398H291.503ZM295.263 61.7718C296.031 61.7718 296.639 61.5105 297.087 60.9878C297.546 60.4545 297.775 59.6812 297.775 58.6678C297.775 57.6438 297.546 56.8705 297.087 56.3478C296.639 55.8145 296.031 55.5478 295.263 55.5478C294.506 55.5478 293.898 55.8145 293.439 56.3478C292.991 56.8705 292.767 57.6438 292.767 58.6678C292.767 59.6812 292.991 60.4545 293.439 60.9878C293.898 61.5105 294.506 61.7718 295.263 61.7718ZM304.665 62.8278C303.406 62.8278 302.414 62.4652 301.689 61.7398C300.964 61.0038 300.601 59.9852 300.601 58.6838C300.601 57.8412 300.761 57.1105 301.081 56.4918C301.401 55.8625 301.849 55.3772 302.425 55.0358C303.001 54.6838 303.662 54.5078 304.409 54.5078C305.145 54.5078 305.764 54.6625 306.265 54.9718C306.766 55.2812 307.15 55.7238 307.417 56.2998C307.684 56.8652 307.817 57.5372 307.817 58.3158V58.7958H301.593V57.9798H306.969L306.697 58.1878C306.697 57.3345 306.505 56.6678 306.121 56.1878C305.737 55.7078 305.166 55.4678 304.409 55.4678C303.609 55.4678 302.985 55.7505 302.537 56.3158C302.089 56.8705 301.865 57.6225 301.865 58.5718V58.7158C301.865 59.7185 302.11 60.4812 302.601 61.0038C303.102 61.5158 303.801 61.7718 304.697 61.7718C305.177 61.7718 305.625 61.7025 306.041 61.5638C306.468 61.4145 306.873 61.1745 307.257 60.8438L307.705 61.7558C307.353 62.0972 306.905 62.3638 306.361 62.5558C305.828 62.7372 305.262 62.8278 304.665 62.8278ZM309.768 62.6838V56.5878C309.768 56.2678 309.757 55.9425 309.736 55.6118C309.725 55.2812 309.704 54.9612 309.672 54.6518H310.92L311.08 56.6038L310.856 56.6198C310.963 56.1398 311.149 55.7452 311.416 55.4358C311.683 55.1265 311.997 54.8972 312.36 54.7478C312.723 54.5878 313.101 54.5078 313.496 54.5078C313.656 54.5078 313.795 54.5132 313.912 54.5238C314.04 54.5345 314.157 54.5612 314.264 54.6038L314.248 55.7558C314.088 55.7025 313.939 55.6705 313.8 55.6598C313.672 55.6385 313.523 55.6278 313.352 55.6278C312.883 55.6278 312.472 55.7398 312.12 55.9638C311.779 56.1878 311.517 56.4758 311.336 56.8278C311.165 57.1798 311.08 57.5532 311.08 57.9478V62.6838H309.768ZM318.882 62.8278C318.093 62.8278 317.49 62.6038 317.074 62.1558C316.658 61.6972 316.45 61.0092 316.45 60.0918V55.6598H314.882V54.6518H316.45V52.4598L317.746 52.0918V54.6518H320.05V55.6598H317.746V59.9478C317.746 60.5878 317.853 61.0465 318.066 61.3238C318.29 61.5905 318.621 61.7238 319.058 61.7238C319.261 61.7238 319.442 61.7078 319.602 61.6758C319.762 61.6332 319.906 61.5852 320.034 61.5318V62.6198C319.885 62.6838 319.704 62.7318 319.49 62.7638C319.288 62.8065 319.085 62.8278 318.882 62.8278ZM321.402 66.3158L321.098 65.2438C321.599 65.1265 322.015 64.9878 322.346 64.8278C322.687 64.6785 322.97 64.4758 323.194 64.2198C323.418 63.9638 323.61 63.6438 323.77 63.2598L324.186 62.3158L324.154 62.8598L320.65 54.6518H322.058L324.954 61.7078H324.538L327.402 54.6518H328.762L325.05 63.3558C324.837 63.8678 324.602 64.2945 324.346 64.6358C324.09 64.9878 323.813 65.2705 323.514 65.4838C323.226 65.7078 322.906 65.8838 322.554 66.0118C322.202 66.1398 321.818 66.2412 321.402 66.3158ZM338.218 62.8278C337.311 62.8278 336.5 62.7105 335.786 62.4758C335.071 62.2412 334.447 61.9052 333.914 61.4678L334.394 60.4118C334.767 60.6892 335.14 60.9238 335.514 61.1158C335.898 61.2972 336.308 61.4358 336.746 61.5318C337.183 61.6172 337.674 61.6598 338.218 61.6598C339.167 61.6598 339.871 61.4838 340.33 61.1318C340.788 60.7798 341.018 60.3105 341.018 59.7238C341.018 59.2225 340.858 58.8385 340.538 58.5718C340.218 58.3052 339.658 58.0918 338.858 57.9318L337.178 57.5958C336.143 57.3825 335.37 57.0358 334.858 56.5558C334.356 56.0758 334.106 55.4252 334.106 54.6038C334.106 53.9318 334.276 53.3452 334.618 52.8438C334.97 52.3425 335.46 51.9532 336.09 51.6758C336.719 51.3985 337.45 51.2598 338.282 51.2598C339.082 51.2598 339.812 51.3825 340.474 51.6278C341.135 51.8625 341.7 52.2092 342.17 52.6678L341.706 53.6918C341.204 53.2438 340.676 52.9238 340.122 52.7318C339.578 52.5292 338.959 52.4278 338.266 52.4278C337.391 52.4278 336.698 52.6198 336.186 53.0038C335.684 53.3772 335.434 53.8892 335.434 54.5398C335.434 55.0625 335.594 55.4732 335.914 55.7718C336.234 56.0598 336.762 56.2785 337.498 56.4278L339.194 56.7638C340.282 56.9878 341.082 57.3238 341.594 57.7718C342.106 58.2198 342.362 58.8492 342.362 59.6598C342.362 60.2785 342.191 60.8278 341.85 61.3078C341.519 61.7878 341.044 62.1612 340.426 62.4278C339.807 62.6945 339.071 62.8278 338.218 62.8278ZM347.659 62.8278C346.891 62.8278 346.219 62.6625 345.643 62.3318C345.077 61.9905 344.64 61.5105 344.331 60.8918C344.021 60.2625 343.867 59.5212 343.867 58.6678C343.867 57.8038 344.021 57.0625 344.331 56.4438C344.64 55.8252 345.077 55.3505 345.643 55.0198C346.219 54.6785 346.891 54.5078 347.659 54.5078C348.437 54.5078 349.109 54.6785 349.675 55.0198C350.251 55.3505 350.693 55.8252 351.003 56.4438C351.323 57.0625 351.483 57.8038 351.483 58.6678C351.483 59.5212 351.323 60.2625 351.003 60.8918C350.693 61.5105 350.251 61.9905 349.675 62.3318C349.109 62.6625 348.437 62.8278 347.659 62.8278ZM347.659 61.7718C348.427 61.7718 349.035 61.5105 349.483 60.9878C349.931 60.4545 350.155 59.6812 350.155 58.6678C350.155 57.6438 349.925 56.8705 349.467 56.3478C349.019 55.8145 348.416 55.5478 347.659 55.5478C346.901 55.5478 346.299 55.8145 345.851 56.3478C345.403 56.8705 345.179 57.6438 345.179 58.6678C345.179 59.6812 345.403 60.4545 345.851 60.9878C346.299 61.5105 346.901 61.7718 347.659 61.7718ZM353.503 62.6838V50.9078H354.799V62.6838H353.503ZM360.148 62.8278C359.198 62.8278 358.478 62.5665 357.988 62.0438C357.508 61.5212 357.268 60.7212 357.268 59.6438V54.6518H358.564V59.6118C358.564 60.3478 358.713 60.8918 359.012 61.2438C359.31 61.5852 359.774 61.7558 360.404 61.7558C361.108 61.7558 361.673 61.5265 362.1 61.0678C362.526 60.6092 362.74 59.9958 362.74 59.2278V54.6518H364.036V62.6838H362.772V60.8758H362.98C362.756 61.4945 362.393 61.9745 361.892 62.3158C361.401 62.6572 360.82 62.8278 360.148 62.8278ZM369.398 62.8278C368.609 62.8278 368.006 62.6038 367.59 62.1558C367.174 61.6972 366.966 61.0092 366.966 60.0918V55.6598H365.398V54.6518H366.966V52.4598L368.262 52.0918V54.6518H370.566V55.6598H368.262V59.9478C368.262 60.5878 368.369 61.0465 368.582 61.3238C368.806 61.5905 369.137 61.7238 369.574 61.7238C369.777 61.7238 369.958 61.7078 370.118 61.6758C370.278 61.6332 370.422 61.5852 370.55 61.5318V62.6198C370.401 62.6838 370.219 62.7318 370.006 62.7638C369.803 62.8065 369.601 62.8278 369.398 62.8278ZM372.144 62.6838V54.6518H373.44V62.6838H372.144ZM371.984 52.8278V51.3718H373.584V52.8278H371.984ZM379.252 62.8278C378.484 62.8278 377.812 62.6625 377.236 62.3318C376.671 61.9905 376.234 61.5105 375.924 60.8918C375.615 60.2625 375.46 59.5212 375.46 58.6678C375.46 57.8038 375.615 57.0625 375.924 56.4438C376.234 55.8252 376.671 55.3505 377.236 55.0198C377.812 54.6785 378.484 54.5078 379.252 54.5078C380.031 54.5078 380.703 54.6785 381.268 55.0198C381.844 55.3505 382.287 55.8252 382.596 56.4438C382.916 57.0625 383.076 57.8038 383.076 58.6678C383.076 59.5212 382.916 60.2625 382.596 60.8918C382.287 61.5105 381.844 61.9905 381.268 62.3318C380.703 62.6625 380.031 62.8278 379.252 62.8278ZM379.252 61.7718C380.02 61.7718 380.628 61.5105 381.076 60.9878C381.524 60.4545 381.748 59.6812 381.748 58.6678C381.748 57.6438 381.519 56.8705 381.06 56.3478C380.612 55.8145 380.01 55.5478 379.252 55.5478C378.495 55.5478 377.892 55.8145 377.444 56.3478C376.996 56.8705 376.772 57.6438 376.772 58.6678C376.772 59.6812 376.996 60.4545 377.444 60.9878C377.892 61.5105 378.495 61.7718 379.252 61.7718ZM385.097 62.6838V56.5078C385.097 56.2092 385.081 55.9052 385.049 55.5958C385.028 55.2758 385.001 54.9612 384.969 54.6518H386.217L386.377 56.4118H386.185C386.42 55.7932 386.793 55.3238 387.305 55.0038C387.828 54.6732 388.43 54.5078 389.113 54.5078C390.062 54.5078 390.777 54.7638 391.257 55.2758C391.748 55.7772 391.993 56.5718 391.993 57.6598V62.6838H390.697V57.7398C390.697 56.9825 390.542 56.4332 390.233 56.0918C389.934 55.7398 389.465 55.5638 388.825 55.5638C388.078 55.5638 387.486 55.7932 387.049 56.2518C386.612 56.7105 386.393 57.3238 386.393 58.0918V62.6838H385.097ZM397.144 62.8278C396.504 62.8278 395.907 62.7425 395.352 62.5718C394.797 62.3905 394.339 62.1398 393.976 61.8198L394.424 60.9078C394.819 61.2172 395.245 61.4465 395.704 61.5958C396.173 61.7452 396.659 61.8198 397.16 61.8198C397.8 61.8198 398.28 61.7078 398.6 61.4838C398.931 61.2492 399.096 60.9292 399.096 60.5238C399.096 60.2145 398.989 59.9692 398.776 59.7878C398.573 59.5958 398.237 59.4465 397.768 59.3398L396.28 59.0358C395.597 58.8865 395.085 58.6358 394.744 58.2838C394.403 57.9212 394.232 57.4625 394.232 56.9078C394.232 56.4385 394.355 56.0278 394.6 55.6758C394.845 55.3132 395.203 55.0305 395.672 54.8278C396.141 54.6145 396.691 54.5078 397.32 54.5078C397.907 54.5078 398.445 54.5985 398.936 54.7798C399.437 54.9505 399.853 55.2012 400.184 55.5318L399.72 56.4278C399.4 56.1185 399.032 55.8892 398.616 55.7398C398.211 55.5798 397.789 55.4998 397.352 55.4998C396.723 55.4998 396.248 55.6278 395.928 55.8838C395.619 56.1292 395.464 56.4545 395.464 56.8598C395.464 57.1692 395.56 57.4252 395.752 57.6278C395.955 57.8198 396.264 57.9638 396.68 58.0598L398.168 58.3638C398.893 58.5238 399.432 58.7745 399.784 59.1158C400.147 59.4465 400.328 59.8945 400.328 60.4598C400.328 60.9398 400.195 61.3612 399.928 61.7238C399.661 62.0758 399.288 62.3478 398.808 62.5398C398.339 62.7318 397.784 62.8278 397.144 62.8278Z" fill="white"/>
<path d="M410.578 61.8278C409.672 61.8278 408.85 61.7158 408.114 61.4918C407.378 61.2572 406.738 60.9265 406.194 60.4998L406.754 59.1878C407.117 59.4652 407.49 59.6945 407.874 59.8758C408.269 60.0572 408.685 60.1958 409.122 60.2918C409.57 60.3772 410.056 60.4198 410.578 60.4198C411.474 60.4198 412.13 60.2598 412.546 59.9398C412.973 59.6198 413.186 59.1985 413.186 58.6758C413.186 58.2278 413.037 57.8812 412.738 57.6358C412.45 57.3905 411.938 57.1932 411.202 57.0438L409.458 56.6918C408.424 56.4785 407.65 56.1318 407.138 55.6518C406.637 55.1612 406.386 54.4945 406.386 53.6518C406.386 52.9692 406.568 52.3718 406.93 51.8598C407.293 51.3478 407.794 50.9532 408.434 50.6758C409.085 50.3985 409.842 50.2598 410.706 50.2598C411.506 50.2598 412.242 50.3772 412.914 50.6118C413.586 50.8358 414.152 51.1718 414.61 51.6198L414.066 52.8838C413.586 52.4678 413.074 52.1638 412.53 51.9718C411.986 51.7692 411.368 51.6678 410.674 51.6678C409.853 51.6678 409.208 51.8385 408.738 52.1798C408.28 52.5212 408.05 52.9852 408.05 53.5718C408.05 54.0412 408.194 54.4092 408.482 54.6758C408.781 54.9425 409.272 55.1452 409.954 55.2838L411.698 55.6198C412.776 55.8438 413.57 56.1905 414.082 56.6598C414.594 57.1185 414.85 57.7532 414.85 58.5638C414.85 59.2145 414.674 59.7852 414.322 60.2758C413.981 60.7665 413.49 61.1505 412.85 61.4278C412.21 61.6945 411.453 61.8278 410.578 61.8278ZM416.751 61.6838V53.6198H418.367V61.6838H416.751ZM416.623 51.9398V50.2598H418.495V51.9398H416.623ZM420.736 61.6838V55.5558C420.736 55.2465 420.72 54.9318 420.688 54.6118C420.666 54.2812 420.64 53.9505 420.608 53.6198H422.176L422.32 55.3158H422.128C422.373 54.7185 422.752 54.2652 423.264 53.9558C423.776 53.6358 424.368 53.4758 425.04 53.4758C425.989 53.4758 426.704 53.7372 427.184 54.2598C427.674 54.7825 427.92 55.5932 427.92 56.6918V61.6838H426.304V56.7878C426.304 56.0732 426.16 55.5612 425.872 55.2518C425.594 54.9318 425.168 54.7718 424.592 54.7718C423.909 54.7718 423.365 54.9852 422.96 55.4118C422.554 55.8278 422.352 56.3932 422.352 57.1078V61.6838H420.736ZM433.756 61.8278C432.945 61.8278 432.236 61.6625 431.628 61.3318C431.031 60.9905 430.567 60.5052 430.236 59.8758C429.916 59.2358 429.756 58.4785 429.756 57.6038C429.756 56.7398 429.921 55.9985 430.252 55.3798C430.583 54.7612 431.047 54.2918 431.644 53.9718C432.241 53.6412 432.945 53.4758 433.756 53.4758C434.279 53.4758 434.785 53.5665 435.276 53.7478C435.767 53.9185 436.172 54.1638 436.492 54.4838L435.964 55.6198C435.665 55.3318 435.329 55.1185 434.956 54.9798C434.583 54.8305 434.22 54.7558 433.868 54.7558C433.1 54.7558 432.497 55.0012 432.06 55.4918C431.623 55.9825 431.404 56.6918 431.404 57.6198C431.404 58.5585 431.623 59.2785 432.06 59.7798C432.497 60.2812 433.1 60.5318 433.868 60.5318C434.209 60.5318 434.567 60.4678 434.94 60.3398C435.313 60.2012 435.655 59.9825 435.964 59.6838L436.492 60.8198C436.161 61.1398 435.745 61.3905 435.244 61.5718C434.753 61.7425 434.257 61.8278 433.756 61.8278ZM441.776 61.8278C440.475 61.8278 439.451 61.4598 438.704 60.7238C437.957 59.9878 437.584 58.9692 437.584 57.6678C437.584 56.8252 437.744 56.0892 438.064 55.4598C438.395 54.8305 438.848 54.3452 439.424 54.0038C440.011 53.6518 440.688 53.4758 441.456 53.4758C442.213 53.4758 442.848 53.6358 443.36 53.9558C443.872 54.2758 444.261 54.7292 444.528 55.3158C444.795 55.8918 444.928 56.5745 444.928 57.3638V57.8758H438.848V56.9478H443.824L443.552 57.1558C443.552 56.3558 443.371 55.7372 443.008 55.2998C442.656 54.8518 442.144 54.6278 441.472 54.6278C440.725 54.6278 440.149 54.8892 439.744 55.4118C439.339 55.9238 439.136 56.6332 439.136 57.5398V57.6998C439.136 58.6492 439.365 59.3638 439.824 59.8438C440.293 60.3238 440.955 60.5638 441.808 60.5638C442.277 60.5638 442.715 60.4998 443.12 60.3718C443.536 60.2332 443.931 60.0092 444.304 59.6998L444.832 60.8038C444.459 61.1345 444.005 61.3905 443.472 61.5718C442.939 61.7425 442.373 61.8278 441.776 61.8278ZM451.192 61.6838V60.4518L455.064 56.4038C455.565 55.8812 455.939 55.3905 456.184 54.9318C456.429 54.4732 456.552 53.9985 456.552 53.5078C456.552 52.8998 456.36 52.4412 455.976 52.1318C455.603 51.8225 455.059 51.6678 454.344 51.6678C453.779 51.6678 453.245 51.7692 452.744 51.9718C452.253 52.1745 451.779 52.4838 451.32 52.8998L450.744 51.6358C451.192 51.2198 451.747 50.8892 452.408 50.6438C453.08 50.3878 453.789 50.2598 454.536 50.2598C455.709 50.2598 456.611 50.5265 457.24 51.0598C457.88 51.5932 458.2 52.3558 458.2 53.3478C458.2 54.0518 458.029 54.7292 457.688 55.3798C457.347 56.0198 456.835 56.6812 456.152 57.3638L452.808 60.7398V60.2918H458.664V61.6838H451.192ZM464.258 61.8278C462.957 61.8278 461.954 61.3318 461.25 60.3398C460.557 59.3372 460.21 57.9025 460.21 56.0358C460.21 54.1372 460.557 52.7025 461.25 51.7318C461.954 50.7505 462.957 50.2598 464.258 50.2598C465.57 50.2598 466.573 50.7505 467.266 51.7318C467.959 52.7025 468.306 54.1318 468.306 56.0198C468.306 57.8972 467.954 59.3372 467.25 60.3398C466.557 61.3318 465.559 61.8278 464.258 61.8278ZM464.258 60.4358C465.079 60.4358 465.687 60.0785 466.082 59.3638C466.487 58.6492 466.69 57.5345 466.69 56.0198C466.69 54.4945 466.487 53.3852 466.082 52.6918C465.687 51.9878 465.079 51.6358 464.258 51.6358C463.447 51.6358 462.839 51.9878 462.434 52.6918C462.029 53.3852 461.826 54.4892 461.826 56.0038C461.826 57.5292 462.029 58.6492 462.434 59.3638C462.85 60.0785 463.458 60.4358 464.258 60.4358ZM470.972 61.6838V60.2918H473.596V51.8118H474.428L471.228 53.7638V52.1638L474.06 50.4038H475.26V60.2918H477.724V61.6838H470.972ZM483.445 61.8278C482.144 61.8278 481.141 61.3318 480.437 60.3398C479.744 59.3372 479.397 57.9025 479.397 56.0358C479.397 54.1372 479.744 52.7025 480.437 51.7318C481.141 50.7505 482.144 50.2598 483.445 50.2598C484.757 50.2598 485.76 50.7505 486.453 51.7318C487.147 52.7025 487.493 54.1318 487.493 56.0198C487.493 57.8972 487.141 59.3372 486.437 60.3398C485.744 61.3318 484.747 61.8278 483.445 61.8278ZM483.445 60.4358C484.267 60.4358 484.875 60.0785 485.269 59.3638C485.675 58.6492 485.877 57.5345 485.877 56.0198C485.877 54.4945 485.675 53.3852 485.269 52.6918C484.875 51.9878 484.267 51.6358 483.445 51.6358C482.635 51.6358 482.027 51.9878 481.621 52.6918C481.216 53.3852 481.013 54.4892 481.013 56.0038C481.013 57.5292 481.216 58.6492 481.621 59.3638C482.037 60.0785 482.645 60.4358 483.445 60.4358Z" fill="white"/>
</svg>
