<svg width="262" height="124" viewBox="0 0 262 124" fill="none" xmlns="http://www.w3.org/2000/svg">
<path d="M15.6026 40.0835C17.5773 40.0835 19.3874 40.0835 21.3621 40.0835C21.3621 41.0066 21.3621 41.9297 21.3621 43.1045C21.7735 42.7689 22.0203 42.601 22.2671 42.4332C24.7355 40.5031 27.2039 38.573 29.6722 36.6429C30.8241 35.7199 32.0583 35.8038 33.2925 36.8108C36.8304 39.58 40.3684 42.3493 43.9064 45.1185C46.7861 47.3843 49.6659 49.65 52.5456 51.8319C53.2861 52.4193 53.7798 53.1745 53.6152 54.0976C53.2861 55.9438 50.9823 56.6151 49.3368 55.3564C46.8684 53.4263 44.4823 51.4962 42.014 49.65C38.8051 47.1325 35.5963 44.615 32.3874 42.0975C31.7292 41.5101 31.2355 41.5101 30.5773 42.0975C24.9823 46.5451 19.3051 50.9088 13.6279 55.3564C13.2165 55.692 12.8051 55.9438 12.3115 56.1116C11.2418 56.4473 10.0077 56.0277 9.4317 55.1046C8.85575 54.1815 9.02031 53.0067 9.92538 52.2515C11.5709 50.9088 13.2988 49.65 14.8621 48.3074C15.1912 47.9717 15.5203 47.4682 15.5203 47.0486C15.6026 44.699 15.6026 42.4332 15.6026 40.0835Z" fill="#4C2C92"/>
<path d="M57.4001 62.0698V63.916C57.4001 65.4265 56.1659 66.6853 54.6849 66.6853H51.9697C51.476 68.7832 50.6533 70.7972 49.5014 72.6434L51.3938 74.5734C52.4634 75.6644 52.4634 77.4266 51.3938 78.5175L48.0203 81.9581C46.9507 83.049 45.2229 83.049 44.1533 81.9581L42.2608 80.028C40.4507 81.1189 38.476 81.9581 36.4191 82.5455V85.2309C36.4191 86.7414 35.1849 88.0001 33.7039 88.0001H28.9317C27.4507 88.0001 26.2165 86.7414 26.2165 85.2309V82.5455C24.1596 82.042 22.1849 81.2029 20.3748 80.028L18.4824 81.9581C17.4127 83.049 15.6849 83.049 14.6153 81.9581L11.2419 78.5175C10.1722 77.4266 10.1722 75.6644 11.2419 74.5734L13.1343 72.6434C12.0646 70.7972 11.2419 68.7832 10.7482 66.6853H8.11528C6.63426 66.6853 5.40009 65.4265 5.40009 63.916V61.9859C5.40009 61.7342 5.64692 61.4824 5.89376 61.4824H17.3305C17.3305 61.6503 17.3305 61.8181 17.3305 61.9859C17.3305 69.958 23.6659 76.3357 31.4001 76.3357C39.2165 76.3357 45.4697 69.8741 45.4697 61.9859C45.4697 61.8181 45.4697 61.6503 45.4697 61.4824H56.7419C57.1533 61.4824 57.4001 61.7342 57.4001 62.0698Z" fill="#4C2C92"/>
<path d="M30.0013 57.5383C28.1089 57.5383 26.2988 57.5383 24.4064 57.5383C24.4064 55.86 24.4064 54.1816 24.4064 52.5033C24.4064 52.2516 24.9824 51.832 25.3115 51.832C26.8748 51.7481 28.438 51.832 30.0013 51.832C30.0013 53.6781 30.0013 55.5243 30.0013 57.5383Z" fill="#4C2C92"/>
<path d="M32.7989 51.748C34.3622 51.748 35.9255 51.6641 37.4888 51.748C37.8179 51.748 38.3938 52.2515 38.3938 52.5872C38.4761 54.1816 38.4761 55.776 38.4761 57.4543C36.5837 57.4543 34.7736 57.4543 32.8812 57.4543C32.7989 55.6082 32.7989 53.762 32.7989 51.748Z" fill="#4C2C92"/>
<path d="M24.3242 60.3911C26.2166 60.3911 28.0267 60.3911 29.9191 60.3911C29.9191 62.2373 29.9191 64.1674 29.9191 66.0975C28.3558 66.0975 26.7102 66.1814 25.1469 66.0135C24.8178 66.0135 24.4064 65.4261 24.4064 65.0905C24.3242 63.58 24.3242 62.0694 24.3242 60.3911Z" fill="#4C2C92"/>
<path d="M38.4761 60.3911C38.4761 61.9855 38.5584 63.5799 38.4761 65.1744C38.4761 65.51 37.9824 66.0975 37.6533 66.0975C36.0077 66.1814 34.4445 66.1814 32.7989 66.1814C32.7989 64.2513 32.7989 62.4051 32.7989 60.475C34.6913 60.3911 36.5014 60.3911 38.4761 60.3911Z" fill="#4C2C92"/>
<mask id="path-7-outside-1_9_927" maskUnits="userSpaceOnUse" x="70.2191" y="47.0061" width="185" height="35" fill="black">
<rect fill="white" x="70.2191" y="47.0061" width="185" height="35"/>
<path d="M85.6653 48.0068C85.9248 48.0068 86.069 48.1515 86.069 48.3822V49.824C86.069 50.0547 85.9248 50.1989 85.6653 50.1989H73.468V58.6472H80.8786C81.1092 58.6472 81.2534 58.7626 81.2534 59.0509V60.4347C81.2534 60.6942 81.1381 60.8096 80.8786 60.8096H73.468V70.7001C73.468 70.9308 73.3526 71.0747 73.122 71.0747H71.9685C71.4786 71.0747 71.2191 70.7575 71.2191 70.2961V48.382C71.2191 48.1225 71.3345 48.0071 71.5937 48.0071L85.6653 48.0068ZM98.0932 64.904C98.9006 64.904 99.4773 64.5865 99.4773 63.5485C99.4773 59.8576 96.6225 56.5993 92.4992 56.5993C88.4911 56.5993 85.4057 59.8001 85.4057 63.9234C85.4057 68.1911 88.6642 71.2469 92.7009 71.2469C95.2384 71.2469 97.228 70.0364 98.5256 68.3639C98.6698 68.1621 98.6409 68.0179 98.4679 67.8449L98.0931 67.3547C97.9203 67.124 97.7182 67.1529 97.5164 67.3262C96.4206 68.4219 94.8346 69.2869 92.9027 69.2869C89.8172 69.2869 87.9719 67.1242 87.7126 64.9039L98.0932 64.904ZM87.6838 63.1447C87.7415 61.2128 89.2697 58.6176 92.4705 58.6176C95.6713 58.6176 97.1418 61.2994 97.2283 63.1447H87.6838ZM101.929 69.1138L102.649 68.0755C102.793 67.8448 102.909 67.7871 103.139 67.9025C103.226 67.989 105.014 69.2 107.205 69.2C109.627 69.2 110.377 68.162 110.377 67.2107C110.377 65.8267 108.762 65.3077 106.801 64.7886C103.918 64.0389 102.015 62.799 102.015 60.6076C102.015 58.5026 103.831 56.5996 107.176 56.5996C109.252 56.5996 110.896 57.4934 111.876 58.0702C112.107 58.1855 112.193 58.3873 112.078 58.5604L111.328 59.6561C111.213 59.8579 111.04 59.9156 110.838 59.8003C109.714 59.2236 108.589 58.7045 107.176 58.7045C104.725 58.7045 104.293 60.031 104.293 60.6942C104.293 61.9918 105.965 62.5108 107.609 62.9722C110.175 63.6642 112.799 64.7599 112.799 67.2112C112.799 69.6332 110.608 71.2764 107.205 71.2764C104.87 71.2764 102.765 70.1233 102.044 69.5466C101.9 69.4312 101.842 69.2292 101.929 69.1138ZM123.612 70.2384C123.699 70.4114 123.526 70.5562 123.324 70.6715C122.776 70.9599 121.796 71.2188 120.7 71.2188C117.701 71.2188 116.98 69.4888 116.98 65.9132V58.9064H115.193C114.991 58.9064 114.847 58.791 114.847 58.5603V58.1278C114.847 57.9548 114.875 57.8395 115.048 57.7241C116.807 56.8882 117.615 56.0228 118.336 52.5915C118.393 52.4185 118.451 52.3032 118.595 52.3032H118.941C119.143 52.3032 119.172 52.4185 119.172 52.6204V56.8014H122.747C122.949 56.8014 123.122 56.9456 123.122 57.1763V58.5604C123.122 58.7622 122.949 58.9064 122.747 58.9064H119.72C119.489 58.9064 119.287 58.8776 119.143 58.8199V65.625C119.143 67.8741 119.287 69.1716 121.017 69.1716C121.882 69.1716 122.315 69.0277 122.776 68.8836C123.065 68.7971 123.295 68.8544 123.353 69.0851L123.612 70.2384ZM127.851 50.5723C127.131 50.5723 126.583 50.0245 126.583 49.3324C126.583 48.6404 127.131 48.0925 127.851 48.0925C128.515 48.0925 129.091 48.6404 129.091 49.3324C129.091 50.0245 128.515 50.5723 127.851 50.5723ZM128.572 56.801L127.13 56.8007C126.871 56.8007 126.756 56.9161 126.756 57.1756V70.2957C126.756 70.757 127.015 71.0742 127.476 71.0742H128.601C128.803 71.0742 128.947 70.9303 128.947 70.6996V57.1759C128.947 56.9164 128.803 56.801 128.572 56.801ZM146.306 56.801H144.605C144.374 56.801 144.317 56.8875 144.23 57.0894L139.242 67.5854L134.224 57.0894C134.138 56.8875 134.08 56.801 133.878 56.801H132.09C131.889 56.801 131.802 56.8875 131.889 57.0894L138.722 70.959C138.809 71.1029 138.953 71.2468 139.126 71.2468H139.386C139.53 71.2468 139.703 71.1029 139.789 70.959L146.566 57.0894C146.652 56.8875 146.479 56.801 146.306 56.801ZM160.406 64.904C161.213 64.904 161.79 64.5865 161.79 63.5485C161.79 59.8576 158.935 56.5993 154.812 56.5993C150.804 56.5993 147.718 59.8001 147.718 63.9234C147.718 68.1911 150.977 71.2469 155.014 71.2469C157.551 71.2469 159.541 70.0364 160.838 68.3639C160.983 68.1621 160.954 68.0179 160.781 67.8449L160.406 67.3547C160.233 67.124 160.031 67.1529 159.829 67.3262C158.733 68.4219 157.147 69.2869 155.215 69.2869C152.13 69.2869 150.285 67.1242 150.025 64.9039L160.406 64.904ZM149.997 63.1447C150.054 61.2128 151.582 58.6176 154.783 58.6176C157.984 58.6176 159.455 61.2994 159.541 63.1447H149.997ZM180.418 48.0068C188.29 48.0068 192.182 53.8318 192.182 59.3967C192.182 65.279 188.261 71.0745 180.504 71.0745H172.632C172.373 71.0745 172.257 70.9306 172.257 70.7V48.381C172.257 48.1215 172.373 48.0061 172.632 48.0061L180.418 48.0068ZM180.619 68.8835C186.646 68.8835 189.904 64.1543 189.876 59.3965C189.876 54.6675 186.704 50.1984 180.619 50.1984H174.506L174.535 68.8835H180.619ZM197.056 50.5723C196.335 50.5723 195.787 50.0245 195.787 49.3324C195.787 48.6404 196.335 48.0925 197.056 48.0925C197.719 48.0925 198.296 48.6404 198.296 49.3324C198.296 50.0245 197.719 50.5723 197.056 50.5723ZM197.777 56.801L196.335 56.8007C196.075 56.8007 195.96 56.9161 195.96 57.1756V70.2957C195.96 70.757 196.22 71.0742 196.681 71.0742H197.805C198.007 71.0742 198.151 70.9303 198.151 70.6996V57.1759C198.151 56.9164 198.007 56.801 197.777 56.801ZM211.79 71.7664C214.587 72.1413 217.124 72.8619 216.951 75.9184C216.75 79.4077 213.232 81.282 208.676 81.282C204.754 81.282 201.842 79.6384 201.957 76.3512C202.015 74.4772 203.226 73.2661 205.071 72.7759C203.111 72.5164 201.294 71.5072 201.179 69.7775C201.092 68.1627 202.505 67.0093 204.523 67.4421C203.63 66.8366 202.505 65.2218 202.476 63.2898C202.361 59.5125 205.216 56.6581 208.878 56.6581C211.213 56.6581 211.531 57.0906 215.308 56.9464C215.51 56.9464 215.683 57.0329 215.654 57.2636L215.596 58.3882C215.077 58.5903 214.097 58.5903 213.29 58.6189C215.279 60.0318 215.481 61.935 215.51 63.3479C215.481 67.0965 212.598 69.5182 209.08 69.4031C207.436 69.3742 206.283 68.7978 205.648 68.4804C204.293 68.1055 203.226 68.5669 203.313 69.4893C203.399 70.4409 204.668 70.9022 206.629 71.1323C208.763 71.3918 210.464 71.5934 211.79 71.7664ZM209.022 58.7327C206.542 58.7327 204.581 60.578 204.61 63.1444C204.581 65.4224 206.6 67.3258 208.993 67.3544C211.732 67.3544 213.347 65.5667 213.376 63.1444C213.347 60.5493 211.415 58.7327 209.022 58.7327ZM208.906 79.2633C211.934 79.2633 214.529 78.0805 214.616 76.0047C214.673 74.8512 214.039 74.188 211.963 73.842C210.752 73.6113 209.137 73.4095 207.118 73.1788C205.879 73.0349 204.177 74.1306 204.12 76.0051C204.033 78.3981 206.369 79.2633 208.906 79.2633ZM220.845 50.5723C220.124 50.5723 219.576 50.0245 219.576 49.3324C219.576 48.6404 220.124 48.0925 220.845 48.0925C221.508 48.0925 222.085 48.6404 222.085 49.3324C222.085 50.0245 221.508 50.5723 220.845 50.5723ZM221.566 56.801L220.124 56.8007C219.864 56.8007 219.749 56.9161 219.749 57.1756V70.2957C219.749 70.757 220.009 71.0742 220.47 71.0742H221.594C221.796 71.0742 221.94 70.9303 221.94 70.6996V57.1759C221.94 56.9164 221.796 56.801 221.566 56.801ZM234.022 70.2384C234.109 70.4114 233.936 70.5562 233.734 70.6715C233.186 70.9599 232.205 71.2188 231.11 71.2188C228.111 71.2188 227.39 69.4888 227.39 65.9132V58.9064H225.602C225.401 58.9064 225.256 58.791 225.256 58.5603V58.1278C225.256 57.9548 225.285 57.8395 225.458 57.7241C227.217 56.8882 228.025 56.0228 228.745 52.5915C228.803 52.4185 228.861 52.3032 229.005 52.3032H229.351C229.553 52.3032 229.582 52.4185 229.582 52.6204V56.8014H233.157C233.359 56.8014 233.532 56.9456 233.532 57.1763V58.5604C233.532 58.7622 233.359 58.9064 233.157 58.9064H230.129C229.899 58.9064 229.697 58.8776 229.553 58.8199V65.625C229.553 67.8741 229.697 69.1716 231.427 69.1716C232.292 69.1716 232.725 69.0277 233.186 68.8836C233.475 68.7971 233.705 68.8544 233.763 69.0851L234.022 70.2384ZM248.584 70.5265C248.296 67.7294 248.266 64.961 248.382 62.1641C248.526 58.8192 246.738 56.6278 243.22 56.6278C240.942 56.6278 238.636 57.3198 237.223 58.0984C236.992 58.2137 236.877 58.4444 236.992 58.6462L237.482 59.742C237.569 59.9727 237.742 60.0303 238.03 59.8862C240.02 58.9349 241.548 58.56 243.134 58.56C245.181 58.56 246.363 59.5981 246.277 61.8472C240.193 62.8853 236.329 63.8945 236.329 67.4124C236.329 69.7481 238.059 71.2187 240.971 71.2187C243.451 71.2187 244.922 70.4401 246.479 69.4598C246.565 70.3248 246.738 71.0745 247.113 71.0745H248.324C248.584 71.0745 248.642 70.844 248.584 70.5265ZM241.346 69.4593C239.847 69.4593 238.549 68.8826 238.549 67.3833C238.549 65.1052 242.326 64.5285 246.248 63.7213C246.19 65.0477 246.19 66.6337 246.248 67.8159C245.181 68.5368 243.278 69.4593 241.346 69.4593ZM254.293 48.0068H252.852C252.592 48.0068 252.477 48.1221 252.477 48.3817V70.2668C252.477 70.7568 252.736 71.0739 253.255 71.0739H254.293C254.524 71.0739 254.668 70.9301 254.668 70.6705V48.3805C254.668 48.1209 254.524 48.0068 254.293 48.0068Z"/>
</mask>
<path d="M85.6653 48.0068C85.9248 48.0068 86.069 48.1515 86.069 48.3822V49.824C86.069 50.0547 85.9248 50.1989 85.6653 50.1989H73.468V58.6472H80.8786C81.1092 58.6472 81.2534 58.7626 81.2534 59.0509V60.4347C81.2534 60.6942 81.1381 60.8096 80.8786 60.8096H73.468V70.7001C73.468 70.9308 73.3526 71.0747 73.122 71.0747H71.9685C71.4786 71.0747 71.2191 70.7575 71.2191 70.2961V48.382C71.2191 48.1225 71.3345 48.0071 71.5937 48.0071L85.6653 48.0068ZM98.0932 64.904C98.9006 64.904 99.4773 64.5865 99.4773 63.5485C99.4773 59.8576 96.6225 56.5993 92.4992 56.5993C88.4911 56.5993 85.4057 59.8001 85.4057 63.9234C85.4057 68.1911 88.6642 71.2469 92.7009 71.2469C95.2384 71.2469 97.228 70.0364 98.5256 68.3639C98.6698 68.1621 98.6409 68.0179 98.4679 67.8449L98.0931 67.3547C97.9203 67.124 97.7182 67.1529 97.5164 67.3262C96.4206 68.4219 94.8346 69.2869 92.9027 69.2869C89.8172 69.2869 87.9719 67.1242 87.7126 64.9039L98.0932 64.904ZM87.6838 63.1447C87.7415 61.2128 89.2697 58.6176 92.4705 58.6176C95.6713 58.6176 97.1418 61.2994 97.2283 63.1447H87.6838ZM101.929 69.1138L102.649 68.0755C102.793 67.8448 102.909 67.7871 103.139 67.9025C103.226 67.989 105.014 69.2 107.205 69.2C109.627 69.2 110.377 68.162 110.377 67.2107C110.377 65.8267 108.762 65.3077 106.801 64.7886C103.918 64.0389 102.015 62.799 102.015 60.6076C102.015 58.5026 103.831 56.5996 107.176 56.5996C109.252 56.5996 110.896 57.4934 111.876 58.0702C112.107 58.1855 112.193 58.3873 112.078 58.5604L111.328 59.6561C111.213 59.8579 111.04 59.9156 110.838 59.8003C109.714 59.2236 108.589 58.7045 107.176 58.7045C104.725 58.7045 104.293 60.031 104.293 60.6942C104.293 61.9918 105.965 62.5108 107.609 62.9722C110.175 63.6642 112.799 64.7599 112.799 67.2112C112.799 69.6332 110.608 71.2764 107.205 71.2764C104.87 71.2764 102.765 70.1233 102.044 69.5466C101.9 69.4312 101.842 69.2292 101.929 69.1138ZM123.612 70.2384C123.699 70.4114 123.526 70.5562 123.324 70.6715C122.776 70.9599 121.796 71.2188 120.7 71.2188C117.701 71.2188 116.98 69.4888 116.98 65.9132V58.9064H115.193C114.991 58.9064 114.847 58.791 114.847 58.5603V58.1278C114.847 57.9548 114.875 57.8395 115.048 57.7241C116.807 56.8882 117.615 56.0228 118.336 52.5915C118.393 52.4185 118.451 52.3032 118.595 52.3032H118.941C119.143 52.3032 119.172 52.4185 119.172 52.6204V56.8014H122.747C122.949 56.8014 123.122 56.9456 123.122 57.1763V58.5604C123.122 58.7622 122.949 58.9064 122.747 58.9064H119.72C119.489 58.9064 119.287 58.8776 119.143 58.8199V65.625C119.143 67.8741 119.287 69.1716 121.017 69.1716C121.882 69.1716 122.315 69.0277 122.776 68.8836C123.065 68.7971 123.295 68.8544 123.353 69.0851L123.612 70.2384ZM127.851 50.5723C127.131 50.5723 126.583 50.0245 126.583 49.3324C126.583 48.6404 127.131 48.0925 127.851 48.0925C128.515 48.0925 129.091 48.6404 129.091 49.3324C129.091 50.0245 128.515 50.5723 127.851 50.5723ZM128.572 56.801L127.13 56.8007C126.871 56.8007 126.756 56.9161 126.756 57.1756V70.2957C126.756 70.757 127.015 71.0742 127.476 71.0742H128.601C128.803 71.0742 128.947 70.9303 128.947 70.6996V57.1759C128.947 56.9164 128.803 56.801 128.572 56.801ZM146.306 56.801H144.605C144.374 56.801 144.317 56.8875 144.23 57.0894L139.242 67.5854L134.224 57.0894C134.138 56.8875 134.08 56.801 133.878 56.801H132.09C131.889 56.801 131.802 56.8875 131.889 57.0894L138.722 70.959C138.809 71.1029 138.953 71.2468 139.126 71.2468H139.386C139.53 71.2468 139.703 71.1029 139.789 70.959L146.566 57.0894C146.652 56.8875 146.479 56.801 146.306 56.801ZM160.406 64.904C161.213 64.904 161.79 64.5865 161.79 63.5485C161.79 59.8576 158.935 56.5993 154.812 56.5993C150.804 56.5993 147.718 59.8001 147.718 63.9234C147.718 68.1911 150.977 71.2469 155.014 71.2469C157.551 71.2469 159.541 70.0364 160.838 68.3639C160.983 68.1621 160.954 68.0179 160.781 67.8449L160.406 67.3547C160.233 67.124 160.031 67.1529 159.829 67.3262C158.733 68.4219 157.147 69.2869 155.215 69.2869C152.13 69.2869 150.285 67.1242 150.025 64.9039L160.406 64.904ZM149.997 63.1447C150.054 61.2128 151.582 58.6176 154.783 58.6176C157.984 58.6176 159.455 61.2994 159.541 63.1447H149.997ZM180.418 48.0068C188.29 48.0068 192.182 53.8318 192.182 59.3967C192.182 65.279 188.261 71.0745 180.504 71.0745H172.632C172.373 71.0745 172.257 70.9306 172.257 70.7V48.381C172.257 48.1215 172.373 48.0061 172.632 48.0061L180.418 48.0068ZM180.619 68.8835C186.646 68.8835 189.904 64.1543 189.876 59.3965C189.876 54.6675 186.704 50.1984 180.619 50.1984H174.506L174.535 68.8835H180.619ZM197.056 50.5723C196.335 50.5723 195.787 50.0245 195.787 49.3324C195.787 48.6404 196.335 48.0925 197.056 48.0925C197.719 48.0925 198.296 48.6404 198.296 49.3324C198.296 50.0245 197.719 50.5723 197.056 50.5723ZM197.777 56.801L196.335 56.8007C196.075 56.8007 195.96 56.9161 195.96 57.1756V70.2957C195.96 70.757 196.22 71.0742 196.681 71.0742H197.805C198.007 71.0742 198.151 70.9303 198.151 70.6996V57.1759C198.151 56.9164 198.007 56.801 197.777 56.801ZM211.79 71.7664C214.587 72.1413 217.124 72.8619 216.951 75.9184C216.75 79.4077 213.232 81.282 208.676 81.282C204.754 81.282 201.842 79.6384 201.957 76.3512C202.015 74.4772 203.226 73.2661 205.071 72.7759C203.111 72.5164 201.294 71.5072 201.179 69.7775C201.092 68.1627 202.505 67.0093 204.523 67.4421C203.63 66.8366 202.505 65.2218 202.476 63.2898C202.361 59.5125 205.216 56.6581 208.878 56.6581C211.213 56.6581 211.531 57.0906 215.308 56.9464C215.51 56.9464 215.683 57.0329 215.654 57.2636L215.596 58.3882C215.077 58.5903 214.097 58.5903 213.29 58.6189C215.279 60.0318 215.481 61.935 215.51 63.3479C215.481 67.0965 212.598 69.5182 209.08 69.4031C207.436 69.3742 206.283 68.7978 205.648 68.4804C204.293 68.1055 203.226 68.5669 203.313 69.4893C203.399 70.4409 204.668 70.9022 206.629 71.1323C208.763 71.3918 210.464 71.5934 211.79 71.7664ZM209.022 58.7327C206.542 58.7327 204.581 60.578 204.61 63.1444C204.581 65.4224 206.6 67.3258 208.993 67.3544C211.732 67.3544 213.347 65.5667 213.376 63.1444C213.347 60.5493 211.415 58.7327 209.022 58.7327ZM208.906 79.2633C211.934 79.2633 214.529 78.0805 214.616 76.0047C214.673 74.8512 214.039 74.188 211.963 73.842C210.752 73.6113 209.137 73.4095 207.118 73.1788C205.879 73.0349 204.177 74.1306 204.12 76.0051C204.033 78.3981 206.369 79.2633 208.906 79.2633ZM220.845 50.5723C220.124 50.5723 219.576 50.0245 219.576 49.3324C219.576 48.6404 220.124 48.0925 220.845 48.0925C221.508 48.0925 222.085 48.6404 222.085 49.3324C222.085 50.0245 221.508 50.5723 220.845 50.5723ZM221.566 56.801L220.124 56.8007C219.864 56.8007 219.749 56.9161 219.749 57.1756V70.2957C219.749 70.757 220.009 71.0742 220.47 71.0742H221.594C221.796 71.0742 221.94 70.9303 221.94 70.6996V57.1759C221.94 56.9164 221.796 56.801 221.566 56.801ZM234.022 70.2384C234.109 70.4114 233.936 70.5562 233.734 70.6715C233.186 70.9599 232.205 71.2188 231.11 71.2188C228.111 71.2188 227.39 69.4888 227.39 65.9132V58.9064H225.602C225.401 58.9064 225.256 58.791 225.256 58.5603V58.1278C225.256 57.9548 225.285 57.8395 225.458 57.7241C227.217 56.8882 228.025 56.0228 228.745 52.5915C228.803 52.4185 228.861 52.3032 229.005 52.3032H229.351C229.553 52.3032 229.582 52.4185 229.582 52.6204V56.8014H233.157C233.359 56.8014 233.532 56.9456 233.532 57.1763V58.5604C233.532 58.7622 233.359 58.9064 233.157 58.9064H230.129C229.899 58.9064 229.697 58.8776 229.553 58.8199V65.625C229.553 67.8741 229.697 69.1716 231.427 69.1716C232.292 69.1716 232.725 69.0277 233.186 68.8836C233.475 68.7971 233.705 68.8544 233.763 69.0851L234.022 70.2384ZM248.584 70.5265C248.296 67.7294 248.266 64.961 248.382 62.1641C248.526 58.8192 246.738 56.6278 243.22 56.6278C240.942 56.6278 238.636 57.3198 237.223 58.0984C236.992 58.2137 236.877 58.4444 236.992 58.6462L237.482 59.742C237.569 59.9727 237.742 60.0303 238.03 59.8862C240.02 58.9349 241.548 58.56 243.134 58.56C245.181 58.56 246.363 59.5981 246.277 61.8472C240.193 62.8853 236.329 63.8945 236.329 67.4124C236.329 69.7481 238.059 71.2187 240.971 71.2187C243.451 71.2187 244.922 70.4401 246.479 69.4598C246.565 70.3248 246.738 71.0745 247.113 71.0745H248.324C248.584 71.0745 248.642 70.844 248.584 70.5265ZM241.346 69.4593C239.847 69.4593 238.549 68.8826 238.549 67.3833C238.549 65.1052 242.326 64.5285 246.248 63.7213C246.19 65.0477 246.19 66.6337 246.248 67.8159C245.181 68.5368 243.278 69.4593 241.346 69.4593ZM254.293 48.0068H252.852C252.592 48.0068 252.477 48.1221 252.477 48.3817V70.2668C252.477 70.7568 252.736 71.0739 253.255 71.0739H254.293C254.524 71.0739 254.668 70.9301 254.668 70.6705V48.3805C254.668 48.1209 254.524 48.0068 254.293 48.0068Z" fill="#4C2C92"/>
<path d="M85.6653 48.0068C85.9248 48.0068 86.069 48.1515 86.069 48.3822V49.824C86.069 50.0547 85.9248 50.1989 85.6653 50.1989H73.468V58.6472H80.8786C81.1092 58.6472 81.2534 58.7626 81.2534 59.0509V60.4347C81.2534 60.6942 81.1381 60.8096 80.8786 60.8096H73.468V70.7001C73.468 70.9308 73.3526 71.0747 73.122 71.0747H71.9685C71.4786 71.0747 71.2191 70.7575 71.2191 70.2961V48.382C71.2191 48.1225 71.3345 48.0071 71.5937 48.0071L85.6653 48.0068ZM98.0932 64.904C98.9006 64.904 99.4773 64.5865 99.4773 63.5485C99.4773 59.8576 96.6225 56.5993 92.4992 56.5993C88.4911 56.5993 85.4057 59.8001 85.4057 63.9234C85.4057 68.1911 88.6642 71.2469 92.7009 71.2469C95.2384 71.2469 97.228 70.0364 98.5256 68.3639C98.6698 68.1621 98.6409 68.0179 98.4679 67.8449L98.0931 67.3547C97.9203 67.124 97.7182 67.1529 97.5164 67.3262C96.4206 68.4219 94.8346 69.2869 92.9027 69.2869C89.8172 69.2869 87.9719 67.1242 87.7126 64.9039L98.0932 64.904ZM87.6838 63.1447C87.7415 61.2128 89.2697 58.6176 92.4705 58.6176C95.6713 58.6176 97.1418 61.2994 97.2283 63.1447H87.6838ZM101.929 69.1138L102.649 68.0755C102.793 67.8448 102.909 67.7871 103.139 67.9025C103.226 67.989 105.014 69.2 107.205 69.2C109.627 69.2 110.377 68.162 110.377 67.2107C110.377 65.8267 108.762 65.3077 106.801 64.7886C103.918 64.0389 102.015 62.799 102.015 60.6076C102.015 58.5026 103.831 56.5996 107.176 56.5996C109.252 56.5996 110.896 57.4934 111.876 58.0702C112.107 58.1855 112.193 58.3873 112.078 58.5604L111.328 59.6561C111.213 59.8579 111.04 59.9156 110.838 59.8003C109.714 59.2236 108.589 58.7045 107.176 58.7045C104.725 58.7045 104.293 60.031 104.293 60.6942C104.293 61.9918 105.965 62.5108 107.609 62.9722C110.175 63.6642 112.799 64.7599 112.799 67.2112C112.799 69.6332 110.608 71.2764 107.205 71.2764C104.87 71.2764 102.765 70.1233 102.044 69.5466C101.9 69.4312 101.842 69.2292 101.929 69.1138ZM123.612 70.2384C123.699 70.4114 123.526 70.5562 123.324 70.6715C122.776 70.9599 121.796 71.2188 120.7 71.2188C117.701 71.2188 116.98 69.4888 116.98 65.9132V58.9064H115.193C114.991 58.9064 114.847 58.791 114.847 58.5603V58.1278C114.847 57.9548 114.875 57.8395 115.048 57.7241C116.807 56.8882 117.615 56.0228 118.336 52.5915C118.393 52.4185 118.451 52.3032 118.595 52.3032H118.941C119.143 52.3032 119.172 52.4185 119.172 52.6204V56.8014H122.747C122.949 56.8014 123.122 56.9456 123.122 57.1763V58.5604C123.122 58.7622 122.949 58.9064 122.747 58.9064H119.72C119.489 58.9064 119.287 58.8776 119.143 58.8199V65.625C119.143 67.8741 119.287 69.1716 121.017 69.1716C121.882 69.1716 122.315 69.0277 122.776 68.8836C123.065 68.7971 123.295 68.8544 123.353 69.0851L123.612 70.2384ZM127.851 50.5723C127.131 50.5723 126.583 50.0245 126.583 49.3324C126.583 48.6404 127.131 48.0925 127.851 48.0925C128.515 48.0925 129.091 48.6404 129.091 49.3324C129.091 50.0245 128.515 50.5723 127.851 50.5723ZM128.572 56.801L127.13 56.8007C126.871 56.8007 126.756 56.9161 126.756 57.1756V70.2957C126.756 70.757 127.015 71.0742 127.476 71.0742H128.601C128.803 71.0742 128.947 70.9303 128.947 70.6996V57.1759C128.947 56.9164 128.803 56.801 128.572 56.801ZM146.306 56.801H144.605C144.374 56.801 144.317 56.8875 144.23 57.0894L139.242 67.5854L134.224 57.0894C134.138 56.8875 134.08 56.801 133.878 56.801H132.09C131.889 56.801 131.802 56.8875 131.889 57.0894L138.722 70.959C138.809 71.1029 138.953 71.2468 139.126 71.2468H139.386C139.53 71.2468 139.703 71.1029 139.789 70.959L146.566 57.0894C146.652 56.8875 146.479 56.801 146.306 56.801ZM160.406 64.904C161.213 64.904 161.79 64.5865 161.79 63.5485C161.79 59.8576 158.935 56.5993 154.812 56.5993C150.804 56.5993 147.718 59.8001 147.718 63.9234C147.718 68.1911 150.977 71.2469 155.014 71.2469C157.551 71.2469 159.541 70.0364 160.838 68.3639C160.983 68.1621 160.954 68.0179 160.781 67.8449L160.406 67.3547C160.233 67.124 160.031 67.1529 159.829 67.3262C158.733 68.4219 157.147 69.2869 155.215 69.2869C152.13 69.2869 150.285 67.1242 150.025 64.9039L160.406 64.904ZM149.997 63.1447C150.054 61.2128 151.582 58.6176 154.783 58.6176C157.984 58.6176 159.455 61.2994 159.541 63.1447H149.997ZM180.418 48.0068C188.29 48.0068 192.182 53.8318 192.182 59.3967C192.182 65.279 188.261 71.0745 180.504 71.0745H172.632C172.373 71.0745 172.257 70.9306 172.257 70.7V48.381C172.257 48.1215 172.373 48.0061 172.632 48.0061L180.418 48.0068ZM180.619 68.8835C186.646 68.8835 189.904 64.1543 189.876 59.3965C189.876 54.6675 186.704 50.1984 180.619 50.1984H174.506L174.535 68.8835H180.619ZM197.056 50.5723C196.335 50.5723 195.787 50.0245 195.787 49.3324C195.787 48.6404 196.335 48.0925 197.056 48.0925C197.719 48.0925 198.296 48.6404 198.296 49.3324C198.296 50.0245 197.719 50.5723 197.056 50.5723ZM197.777 56.801L196.335 56.8007C196.075 56.8007 195.96 56.9161 195.96 57.1756V70.2957C195.96 70.757 196.22 71.0742 196.681 71.0742H197.805C198.007 71.0742 198.151 70.9303 198.151 70.6996V57.1759C198.151 56.9164 198.007 56.801 197.777 56.801ZM211.79 71.7664C214.587 72.1413 217.124 72.8619 216.951 75.9184C216.75 79.4077 213.232 81.282 208.676 81.282C204.754 81.282 201.842 79.6384 201.957 76.3512C202.015 74.4772 203.226 73.2661 205.071 72.7759C203.111 72.5164 201.294 71.5072 201.179 69.7775C201.092 68.1627 202.505 67.0093 204.523 67.4421C203.63 66.8366 202.505 65.2218 202.476 63.2898C202.361 59.5125 205.216 56.6581 208.878 56.6581C211.213 56.6581 211.531 57.0906 215.308 56.9464C215.51 56.9464 215.683 57.0329 215.654 57.2636L215.596 58.3882C215.077 58.5903 214.097 58.5903 213.29 58.6189C215.279 60.0318 215.481 61.935 215.51 63.3479C215.481 67.0965 212.598 69.5182 209.08 69.4031C207.436 69.3742 206.283 68.7978 205.648 68.4804C204.293 68.1055 203.226 68.5669 203.313 69.4893C203.399 70.4409 204.668 70.9022 206.629 71.1323C208.763 71.3918 210.464 71.5934 211.79 71.7664ZM209.022 58.7327C206.542 58.7327 204.581 60.578 204.61 63.1444C204.581 65.4224 206.6 67.3258 208.993 67.3544C211.732 67.3544 213.347 65.5667 213.376 63.1444C213.347 60.5493 211.415 58.7327 209.022 58.7327ZM208.906 79.2633C211.934 79.2633 214.529 78.0805 214.616 76.0047C214.673 74.8512 214.039 74.188 211.963 73.842C210.752 73.6113 209.137 73.4095 207.118 73.1788C205.879 73.0349 204.177 74.1306 204.12 76.0051C204.033 78.3981 206.369 79.2633 208.906 79.2633ZM220.845 50.5723C220.124 50.5723 219.576 50.0245 219.576 49.3324C219.576 48.6404 220.124 48.0925 220.845 48.0925C221.508 48.0925 222.085 48.6404 222.085 49.3324C222.085 50.0245 221.508 50.5723 220.845 50.5723ZM221.566 56.801L220.124 56.8007C219.864 56.8007 219.749 56.9161 219.749 57.1756V70.2957C219.749 70.757 220.009 71.0742 220.47 71.0742H221.594C221.796 71.0742 221.94 70.9303 221.94 70.6996V57.1759C221.94 56.9164 221.796 56.801 221.566 56.801ZM234.022 70.2384C234.109 70.4114 233.936 70.5562 233.734 70.6715C233.186 70.9599 232.205 71.2188 231.11 71.2188C228.111 71.2188 227.39 69.4888 227.39 65.9132V58.9064H225.602C225.401 58.9064 225.256 58.791 225.256 58.5603V58.1278C225.256 57.9548 225.285 57.8395 225.458 57.7241C227.217 56.8882 228.025 56.0228 228.745 52.5915C228.803 52.4185 228.861 52.3032 229.005 52.3032H229.351C229.553 52.3032 229.582 52.4185 229.582 52.6204V56.8014H233.157C233.359 56.8014 233.532 56.9456 233.532 57.1763V58.5604C233.532 58.7622 233.359 58.9064 233.157 58.9064H230.129C229.899 58.9064 229.697 58.8776 229.553 58.8199V65.625C229.553 67.8741 229.697 69.1716 231.427 69.1716C232.292 69.1716 232.725 69.0277 233.186 68.8836C233.475 68.7971 233.705 68.8544 233.763 69.0851L234.022 70.2384ZM248.584 70.5265C248.296 67.7294 248.266 64.961 248.382 62.1641C248.526 58.8192 246.738 56.6278 243.22 56.6278C240.942 56.6278 238.636 57.3198 237.223 58.0984C236.992 58.2137 236.877 58.4444 236.992 58.6462L237.482 59.742C237.569 59.9727 237.742 60.0303 238.03 59.8862C240.02 58.9349 241.548 58.56 243.134 58.56C245.181 58.56 246.363 59.5981 246.277 61.8472C240.193 62.8853 236.329 63.8945 236.329 67.4124C236.329 69.7481 238.059 71.2187 240.971 71.2187C243.451 71.2187 244.922 70.4401 246.479 69.4598C246.565 70.3248 246.738 71.0745 247.113 71.0745H248.324C248.584 71.0745 248.642 70.844 248.584 70.5265ZM241.346 69.4593C239.847 69.4593 238.549 68.8826 238.549 67.3833C238.549 65.1052 242.326 64.5285 246.248 63.7213C246.19 65.0477 246.19 66.6337 246.248 67.8159C245.181 68.5368 243.278 69.4593 241.346 69.4593ZM254.293 48.0068H252.852C252.592 48.0068 252.477 48.1221 252.477 48.3817V70.2668C252.477 70.7568 252.736 71.0739 253.255 71.0739H254.293C254.524 71.0739 254.668 70.9301 254.668 70.6705V48.3805C254.668 48.1209 254.524 48.0068 254.293 48.0068Z" stroke="#4C2C92" stroke-width="0.4" mask="url(#path-7-outside-1_9_927)"/>
</svg>
